<svg version="1.2" baseProfile="tiny-ps" xmlns="http://www.w3.org/2000/svg" viewBox="0 0 124 167" width="124" height="167">
	<title>[fo]Icon</title>
	<style>
		tspan { white-space:pre }
		.shp0 { opacity: 0;fill: #000000 } 
		.shp1 { fill: #1f212f } 
		.shp2 { fill: #1c1d24 } 
		.shp3 { fill: #282b40 } 
		.shp4 { fill: #555974 } 
		.shp5 { fill: #292a41 } 
		.shp6 { opacity: 0.6;mix-blend-mode: overlay;fill: #f4dd79 } 
		.shp7 { fill: #856038 } 
		.shp8 { opacity: 0.502;fill: #764229 } 
		.shp9 { opacity: 0.502;mix-blend-mode: multiply;fill: #633920 } 
		.shp10 { fill: #201813 } 
		.shp11 { fill: #f4dd79 } 
	</style>
	<g id="[fo]Icon">
		<g id="common_icon_bomb">
			<path id="bg" class="shp0" d="M115.93 14.66C85.86 -0.61 65.49 -3.9 57.74 -4.86C55.92 -5.09 54.09 -5.09 52.27 -4.86C44.52 -3.9 24.14 -0.61 -5.94 14.66C-9.62 16.53 -12.68 19.43 -14.76 22.99C-20.33 32.58 -31.05 53.97 -34.82 82.25C-35.06 84.05 -35.06 85.9 -34.82 87.7C-31.05 115.98 -20.33 137.37 -14.76 146.96C-12.68 150.52 -9.62 153.42 -5.94 155.29C24.13 170.56 44.5 173.84 52.25 174.81C54.07 175.04 55.9 175.04 57.72 174.81C65.47 173.85 85.85 170.56 115.92 155.29C119.61 153.42 122.67 150.52 124.75 146.96C130.32 137.37 141.03 115.98 144.81 87.7C145.05 85.9 145.05 84.05 144.81 82.25C141.03 53.97 130.32 32.57 124.74 22.99C122.67 19.43 119.61 16.53 115.93 14.66Z" />
			<g id="icon">
				<g id="bomb">
					<path id="Shape 161" class="shp1" d="M66.09 51.62L83.88 55L98.29 65.15L109.3 85.46L111 102.38L106.76 126.92L95.75 141.31L71.17 154L53.38 154L22.03 146.38L10.17 134.54L2.54 110.85L5.93 88L19.49 66.85L35.59 57.54L52.53 51.62L66.09 51.62Z" />
					<path id="Shape 170" class="shp2" d="M9.32 117.62L23.72 127.77L53.68 134.71L78.8 136.23L91.51 133.69L98.29 128.62L94.9 135.38L79.65 144.69L58.46 149.77L34.74 144.69L18.64 136.23L11.86 125.23L9.32 117.62ZM84.73 138.77L83.04 125.23L72.02 109.15L49.99 101.54L29.66 106.62L21.18 116.77L19.49 129.46L38.98 138.77L68.25 140.63L84.73 138.77ZM77.95 65.15L78.8 67.69L75.41 81.23L67.79 88.85L55.08 92.23L39.82 91.38L30.5 86.31L27.96 79.54L27.96 69.38L33.89 61.77L77.95 65.15Z" />
					<path id="Shape 171" class="shp3" d="M83.88 62.62L83.88 69.38L81.34 78.69L74.56 88.85L79.65 90.54L89.82 97.31L96.59 105.77L100.83 116.77L100.83 122.69L99.98 129.46L104.22 124.38L107.61 102.38L105.07 88L96.59 71.08L83.88 62.62ZM26.27 67.69L19.49 72.77L10.17 88L6.78 107.46L6.78 114.23L7.63 115.08L8.47 107.46L12.71 96.46L22.03 88.85L28.81 86.31L25.42 77L26.27 67.69Z" />
					<path id="Shape 169" class="shp4" d="M83.88 62.62L84.73 67.69L83.88 71.92L94.9 81.23L103.37 90.54L105.92 100.69L104.22 88L95.75 71.92L83.88 62.62ZM25.42 69.38L24.57 77L18.64 80.38L13.56 85.46L11.01 87.15L19.49 73.62L25.42 69.38Z" />
					<path id="Shape 168" class="shp5" d="M55.92 51.62L65.24 51.62L73.72 55L78.8 65.15L74.56 77.85L58.46 85.46L42.37 84.62L31.35 77.85L28.81 66.85L34.74 59.23L48.3 52.46L55.92 51.62Z" />
					<path id="Shape 173" fill-rule="evenodd" class="shp6" d="M73.72 56.69L75.41 64.31L70.33 75.31L56.77 79.54L43.21 78.69L33.05 73.62L31.35 66L35.59 59.23L47.45 54.15L58.46 52.46L65.24 52.46L73.72 56.69ZM49.14 62.62L44.91 64.31L44.06 67.69L46.6 70.23L52.53 71.08L58.46 70.23L62.7 67.69L62.7 64.31L59.31 61.77L49.14 62.62Z" />
					<path id="Shape 162" class="shp7" d="M45.76 33.85L52.53 39.77L57.62 49.92L60.16 56.69L61.85 65.15L61.01 67.69L55.92 70.23L48.3 70.23L44.91 67.69L44.91 60.92L40.67 53.31L32.2 44.85L32.2 41.46L33.05 38.92L34.74 39.77L36.43 38.08L35.59 34.69L36.43 33L38.98 34.69L41.52 34.69L44.06 31.31L45.76 33.85Z" />
					<path id="Shape 163" class="shp8" d="M52.83 39.35L52.34 43.64L47.85 49.31L42.78 51.24L36.87 50.23L37.97 52.36L43.87 53.36L49.75 51.7L54.25 46.03L55.8 41.19L52.83 39.35ZM59.12 51.24L57.51 56.04L52.97 58.97L46.98 59.03L42.16 56.7L41.94 58.37L45.08 60.49L49.28 61.04L55.27 60.97L58.97 57.94L59.74 53.02L59.12 51.24ZM44.91 64.31L47.45 66.85L52.53 68.54L57.62 69.38L61.85 67.69L61.85 69.38L60.16 71.08L56.77 71.08L50.84 70.23L46.6 68.54L44.06 65.15L44.91 64.31ZM47.45 33.85L47.45 38.08L45.76 42.31L38.98 44.85L32.2 44L29.66 42.31L29.66 39.77L34.74 42.31L40.67 42.31L44.91 40.62L45.76 36.38L45.76 31.31L47.45 33.85Z" />
					<path id="Shape 172" class="shp9" d="M55.92 42.31L55.08 48.23L55.08 50.77L52.53 51.62L51.69 49.92L48.3 52.46L49.99 56.69L51.69 57.54L49.99 59.23L49.14 60.92L50.84 66.85L56.77 69.38L61.85 67.69L61.85 71.92L49.99 76.15L39.82 71.08L42.37 66.85L32.2 47.38L49.99 31.31L55.92 42.31Z" />
					<path id="Shape 164" class="shp10" d="M50.84 37.23L50.84 39.77L51.69 44L50.84 45.69L47.45 46.54L46.6 45.69L44.06 47.38L46.6 49.92L44.91 51.62L41.52 50.77L41.52 49.08L38.98 49.92L33.05 48.23L28.81 39.77L35.59 27.92L44.06 27.92L50.84 37.23Z" />
					<path id="Shape 166" class="shp11" d="M45.76 35.54L49.14 27.08L47.45 25.38L51.69 9.31L49.99 8.46L42.37 35.54L42.37 22L40.67 22L39.82 12.69L38.13 13.54L38.98 30.46L37.28 33.85L38.13 36.38L25.42 19.46L23.72 20.31L33.89 36.38L32.2 38.08L22.03 33L22.03 34.69L33.05 40.62L33.05 42.31L22.88 42.31L22.88 43.15L10.17 44.85L11.86 46.54L30.5 45.69L33.05 47.38L23.72 52.46L23.72 53.31L33.89 49.08L38.13 49.92L40.67 48.23L43.21 43.15L44.91 43.15L45.76 44.85L47.45 44L49.14 41.46L48.3 39.77L55.92 37.23L55.92 35.54L49.14 37.23L61.01 29.62L60.16 27.08L52.53 32.15L51.69 31.31L45.76 35.54ZM60.16 24.54L61.01 16.92L62.7 16.92L61.01 24.54L60.16 24.54ZM64.4 26.23L70.33 22.85L71.17 24.54L64.4 27.08L64.4 26.23ZM63.55 29.62L69.48 31.31L67.79 33L62.7 30.46L63.55 29.62ZM49.99 6.77L49.99 0L48.3 0L49.14 5.92L49.99 6.77ZM52.53 7.62L61.85 4.23L62.7 6.77L53.38 8.46L52.53 7.62ZM53.38 11L59.31 11.85L57.62 12.69L54.23 11.85L53.38 11ZM47.45 8.46L44.06 7.62L44.06 9.31L47.45 10.15L47.45 8.46ZM25.42 20.31L27.96 16.08L26.27 14.38L24.57 19.46L22.88 16.08L24.57 11.85L23.72 11L22.03 15.23L17.79 14.38L17.79 16.08L21.18 16.08L24.57 20.31L25.42 20.31ZM21.18 21.15L22.03 22L17.79 24.54L16.95 22.85L21.18 21.15ZM21.18 11.85L18.64 5.08L16.1 5.92L19.49 11.85L21.18 11.85ZM18.64 32.15L9.32 28.77L9.32 30.46L17.79 33.85L18.64 32.15ZM8.47 43.15L1.69 39.77L0 42.31L7.63 44.85L8.47 43.15ZM7.63 46.54L8.47 48.23L0.85 52.46L0 51.62L7.63 46.54ZM11.86 49.08L14.4 49.08L13.56 56.69L11.01 56.69L11.86 49.08ZM12.71 41.46L11.86 37.23L10.17 37.23L11.01 41.46L12.71 41.46ZM33.05 53.31L34.74 54.15L31.35 60.92L29.66 60.08L33.05 53.31ZM42.37 51.62L44.06 56.69L41.52 57.54L41.52 52.46L42.37 51.62ZM48.3 47.38L50.84 49.92L48.3 51.62L47.45 49.08L48.3 47.38ZM53.38 42.31L62.7 44L61.85 46.54L52.53 44L53.38 42.31Z" />
				</g>
			</g>
		</g>
	</g>
</svg>