<svg version="1.2" baseProfile="tiny-ps" xmlns="http://www.w3.org/2000/svg" viewBox="0 0 136 160" width="136" height="160">
	<title>[fo]Icon</title>
	<style>
		tspan { white-space:pre }
		.shp0 { opacity: 0;fill: #000000 } 
		.shp1 { fill: #e6cea5 } 
		.shp2 { fill: #d5aa7c } 
		.shp3 { fill: #845415 } 
		.shp4 { fill: #aa7025 } 
		.shp5 { fill: #6a3d11 } 
		.shp6 { fill: #ae7223 } 
		.shp7 { fill: #a0681e } 
		.shp8 { fill: #cc8d33 } 
		.shp9 { fill: #714a16 } 
		.shp10 { fill: #f1ead2 } 
		.shp11 { fill: #e9dbbe } 
		.shp12 { fill: #f4f1e9 } 
	</style>
	<g id="[fo]Icon">
		<g id="common_icon_talaria">
			<path id="bg" class="shp0" d="M121.92 5.66C91.86 -9.61 71.49 -12.9 63.74 -13.86C61.92 -14.09 60.09 -14.09 58.27 -13.86C50.52 -12.9 30.14 -9.61 0.06 5.66C-3.62 7.53 -6.68 10.43 -8.76 13.99C-14.33 23.58 -25.05 44.97 -28.82 73.25C-29.06 75.05 -29.06 76.9 -28.82 78.7C-25.05 106.98 -14.33 128.37 -8.76 137.96C-6.68 141.52 -3.62 144.42 0.06 146.29C30.13 161.56 50.5 164.84 58.25 165.81C60.07 166.04 61.9 166.04 63.72 165.81C71.47 164.85 91.85 161.56 121.92 146.29C125.61 144.42 128.67 141.52 130.75 137.96C136.32 128.37 147.03 106.98 150.81 78.7C151.05 76.9 151.05 75.05 150.81 73.25C147.03 44.97 136.32 23.57 130.75 13.99C128.67 10.43 125.61 7.53 121.92 5.66Z" />
			<g id="icon">
				<g id="talaria">
					<path id="Shape 385 copy" class="shp1" d="M74.36 86.32L80.9 87L86.6 84.13L90.05 76.53L92.76 46.93L89.46 25.15L81.45 5.65L76.26 2.75L72.15 6L70.85 11.57L73.2 23.04L73.12 30.58L70.07 25.67L64.28 21.8L60.54 23.45L59.05 29.83L61.36 37.92L61.88 46.45L59.07 44.11L54.12 43.8L51.42 48.21L51.15 56.54L56.81 64.58L64.67 73.98L68.56 82.45L74.36 86.32Z" />
					<path id="Shape 396" class="shp2" d="M93.34 52.08L87.95 50.29L86.15 43.99L83.45 38.6L77.16 35.9L71.77 37.7L66.37 36.8L62.78 38.6L62.78 43.09L93.34 56.58L93.34 52.08Z" />
					<path id="Shape 388" class="shp3" d="M90.09 88.4L84.88 97.89L84.35 106.03L97.13 113.13L100.58 117.08L106.2 117.9L110.41 110.76L110.18 104.4L108.66 101.02L109.23 99.09L111.73 97.73L117.42 104.02L121.41 116.09L122.74 128.64L112.97 140.43L98.74 146.48L76.83 147.13L65.47 142.88L50.19 129.4L41.2 125.8L22.32 120.41L10.63 114.12L5.24 106.03L6.14 96.14L11.53 87.15L19.62 81.75L28.61 70.96L33.11 58.38L90.09 88.4Z" />
					<path id="Shape 392" class="shp4" d="M111.32 96.14L105.93 100.63L108.62 113.22L112.22 116.81L114.02 111.42L113.12 105.13L114.92 104.23L120.31 105.13L111.32 96.14ZM112.22 118.61L111.32 124.9L102.33 129.4L91.54 129.4L93.34 125.8L99.63 124.01L105.93 120.41L108.62 111.42L111.32 113.22L112.22 118.61ZM98.74 114.12L94.24 113.22L87.95 115.02L81.65 121.31L74.46 122.21L71.77 124.01L68.17 115.02L76.26 107.82L87.95 106.92L97.84 111.42L98.74 114.12Z" />
					<path id="Shape 389" class="shp5" d="M118.46 104.75L119.41 118.61L117.61 127.6L111.32 133L102.33 135.69L94.24 143.78L79.86 144.68L66.37 141.09L54.68 130.3L53.79 124.9L39.4 119.51L33.11 118.61L26.82 110.52L4.34 112.32L2.54 120.41L100.53 162.75L130.7 127.22L118.46 104.75ZM87.95 103.33L72.66 103.33L55.58 101.53L43 105.13L35.81 111.42L25.02 121.31L15.13 119.51L-1.05 108.72L4.34 79.95L33.11 58.38L91.54 91.64L87.95 103.33Z" />
					<path id="Shape 386" class="shp6" d="M105.22 66.28L106.3 72.55L104.63 77.09L97.67 85.39L96.06 91.73L88.92 93.73L74.49 92.35L52.89 84.45L34.01 70.96L29.35 63.09L30.09 57.67L34.01 52.98L35.81 47.59L36.7 38.6L42.82 34.68L51.94 35.59L72.29 42.83L92.95 54.93L105.22 66.28Z" />
					<path id="Shape 395" class="shp7" d="M105.03 79.06L96.04 80.85L78.96 79.06L74.46 80.85L65.47 75.46L55.58 72.76L41.2 61.07L31.31 70.96L43.9 85.35L64.57 93.44L89.75 96.14L99.63 94.34L105.03 79.06Z" />
					<path id="Shape 391" class="shp8" d="M43.93 36.67L42.2 37.69L42.69 44.87L53.54 58.54L62.11 65.16L78.06 72.76L88.85 74.56L98.74 74.56L101.43 72.76L101.43 70.07L93.34 72.76L78.56 70.33L62.76 61.51L51.19 50.59L45.2 41.99L45.78 37.45L43.93 36.67ZM44.76 35.71L52.06 37.01L62.29 40.69L73.25 45.59C73.25 45.59 85.42 52.75 85.59 52.73C85.75 52.71 92.95 56.85 92.95 56.85L101.43 65.57L91.28 58.76L82.96 53.81L72.48 47.44L60.69 43.51L50.33 38.03L44.11 39.36L42.2 37.69L44.76 35.71Z" />
					<path id="Shape 387" class="shp9" d="M96.94 65.57L99.63 66.47L100.21 69.08L93.34 70.07L79.37 68.34L64.49 60.34L53.09 51.15L46.22 42.55L46.89 38.91L50.33 39.08L48.63 41.84L55.58 48.49L64.57 52.08L78.06 56.58L88.85 62.87L92.44 66.47L96.04 67.37L96.94 65.57Z" />
					<path id="Shape 385" class="shp10" d="M34.91 89.84L42.1 88.94L47.49 84.45L49.29 75.46L44.8 43.09L35.81 20.62L22.32 1.74L16.03 -0.06L12.43 4.44L12.43 10.73L17.83 22.42L19.62 30.51L15.13 26.01L7.94 23.32L4.34 26.01L4.34 33.21L8.84 41.3L11.53 50.29L7.94 48.49L2.54 49.39L0.74 54.78L2.54 63.77L10.63 70.96L21.42 79.06L27.71 87.15L34.91 89.84Z" />
					<path id="Shape 394" fill-rule="evenodd" class="shp11" d="M-9.14 63.77L3.44 35L6.14 30.51L10.63 30.51L16.93 33.21L23.22 43.09L30.41 56.58L31.09 61.35L32.21 61.07L35.81 62.87L38.5 65.57L34.01 63.77L31.31 64.22L29.51 64.67L27.71 68.27L27.71 72.76L29.51 78.16L29.51 72.76L31.31 70.07L33.2 69.44L37.6 70.07L40.3 75.46L40.3 80.85L37.6 84.45L41.2 87.15L47.49 88.05L34.91 95.24L12.43 83.55L-9.14 63.77Z" />
					<path id="Shape 393" class="shp12" d="M18.72 30.51L13.33 28.71L7.04 26.91L2.54 30.51L3.44 24.22L11.53 20.62L16.93 25.11L18.72 30.51ZM11.53 7.13L15.13 4.44L19.62 6.24L32.21 22.42L43 43.09L51.09 43.09L25.92 -2.75L13.33 -3.65L8.84 4.44L11.53 7.13ZM11.53 50.29L8.84 51.19L3.44 51.19L-0.15 55.68L1.64 45.79L8.84 46.69L11.53 50.29Z" />
				</g>
			</g>
		</g>
	</g>
</svg>