<svg version="1.2" baseProfile="tiny-ps" xmlns="http://www.w3.org/2000/svg" viewBox="0 0 134 132" width="134" height="132">
	<title>[fo]Icon</title>
	<style>
		tspan { white-space:pre }
		.shp0 { opacity: 0;fill: #000000 } 
		.shp1 { fill: #383a3d } 
		.shp2 { opacity: 0.6;fill: #1f2123 } 
		.shp3 { fill: #212427 } 
		.shp4 { opacity: 0.6;fill: #4e5154 } 
		.shp5 { fill: #535456 } 
		.shp6 { fill: #616263 } 
		.shp7 { opacity: 0.902;fill: #d67e44 } 
		.shp8 { opacity: 0.902;fill: #eba05e } 
		.shp9 { fill: #dd9a5e } 
		.shp10 { fill: #f3cd90 } 
		.shp11 { fill: #cd2c2c } 
		.shp12 { fill: #8f1313 } 
		.shp13 { fill: #ff8c8c } 
		.shp14 { fill: #ebbb5e } 
		.shp15 { fill: #fed687 } 
		.shp16 { fill: #d67e44 } 
		.shp17 { fill: #f9d079 } 
	</style>
	<g id="[fo]Icon">
		<g id="common_icon_shield_D">
			<path id="bg" class="shp0" d="M121.92 -12.34C91.86 -27.61 71.49 -30.9 63.74 -31.86C61.92 -32.09 60.09 -32.09 58.27 -31.86C50.52 -30.9 30.14 -27.61 0.06 -12.34C-3.62 -10.47 -6.68 -7.57 -8.76 -4.01C-14.33 5.58 -25.05 26.97 -28.82 55.25C-29.06 57.05 -29.06 58.9 -28.82 60.7C-25.05 88.98 -14.33 110.37 -8.76 119.96C-6.68 123.52 -3.62 126.42 0.06 128.29C30.13 143.56 50.5 146.84 58.25 147.81C60.07 148.04 61.9 148.04 63.72 147.81C71.47 146.85 91.85 143.56 121.92 128.29C125.61 126.42 128.67 123.52 130.75 119.96C136.32 110.37 147.03 88.98 150.81 60.7C151.05 58.9 151.05 57.05 150.81 55.25C147.03 26.97 136.32 5.57 130.74 -4.01C128.67 -7.57 125.61 -10.47 121.92 -12.34Z" />
			<g id="icon">
				<g id="shield_D">
					<path id="Shape 520" class="shp1" d="M84.85 4.57L113.58 35.21L116.45 76.38L91.55 111.81L43.68 115.64L8.25 86.92L4.42 34.25L35.06 4.57L84.85 4.57Z" />
					<path id="Shape 523" class="shp2" d="M44.64 116.6L50.38 77.34L84.85 74.47L90.6 116.6L44.64 116.6ZM84.85 74.47L81.98 42.87L118.37 35.21L120.28 74.47L84.85 74.47ZM82.94 77.34L85.81 71.6L123.15 70.64L87.73 118.51L82.94 77.34Z" />
					<path id="Shape 524" class="shp3" d="M84.85 75.43L115.49 76.38L91.55 115.64L84.85 75.43Z" />
					<path id="Shape 525" class="shp4" d="M48.47 45.74L50.38 77.34L9.21 84.04L3.46 32.34L36.02 -3.09L82.94 1.7L48.47 45.74Z" />
					<path id="Shape 527" class="shp5" d="M9.21 37.13L48.47 44.79L40.81 8.4L9.21 37.13Z" />
					<path id="Shape 522" class="shp6" d="M82.94 0.74L81.02 42.87L48.47 45.74L36.02 0.74L82.94 0.74Z" />
					<path id="Shape 526" fill-rule="evenodd" class="shp7" d="M123.15 77.34L96.34 116.6L42.72 123.3L1.55 95.53L1.54 95.24L14.26 84.25L44.64 107.98L87.73 104.15L110.71 77.34L107.84 37.2L119.62 32.29L123.15 77.34Z" />
					<path id="Shape 526 copy" fill-rule="evenodd" class="shp8" d="M-1.32 30.42L36.98 -0.22L85.81 -0.22L119.32 28.51L119.37 29.05L106.48 35.73L81.98 10.32L38.89 12.23L12.08 37.13L14 84.04L1.38 91.62L-1.32 30.42Z" />
					<path id="Shape 530" class="shp9" d="M47.51 45.74L36.98 63.94L50.38 79.26L69.53 86.92L84.85 75.43L93.47 58.19L82.94 42.87L64.75 33.3L47.51 45.74Z" />
					<path id="Shape 535" class="shp10" d="M36.98 63.94L40.81 63.94L47.51 51.49L64.75 38.08L77.19 43.83L81.98 39.04L64.75 28.51L45.59 41.91L36.98 63.94Z" />
					<path id="Shape 531" class="shp11" d="M66.66 44.79L78.15 48.62L85.81 58.19L81.02 71.6L69.53 79.26L55.17 74.47L47.51 63.94L54.21 50.53L66.66 44.79Z" />
					<path id="Shape 533" class="shp12" d="M69.53 58.19L76.24 58.19L81.98 59.15L78.15 69.68L68.57 75.43L63.79 69.68L62.83 61.06L69.53 58.19Z" />
					<path id="Shape 532" class="shp13" d="M66.66 48.62L57.08 53.4L52.3 63.94L60.91 65.85L69.53 63.94L69.53 56.28L66.66 48.62Z" />
					<path id="Shape 521" class="shp14" d="M82.94 16.06L92.51 12.23L92.51 10.32L86.77 0.74L75.28 3.61L75.28 6.49L81.02 16.06L82.94 16.06ZM42.72 4.57L42.72 8.4L41.76 15.1L39.85 17.02L29.32 14.15L27.4 12.23L31.23 1.7L42.72 4.57ZM15.91 39.04L15.91 36.17L11.12 28.51L0.59 32.34L0.59 35.21L4.42 42.87L7.29 43.83L15.91 39.04ZM18.78 82.13L15.91 92.66L14 93.62L5.38 89.79L7.29 79.26L10.17 79.26L18.78 82.13ZM47.51 39.04L41.76 44.79L43.68 53.4L57.08 54.36L55.17 40.96L47.51 39.04ZM48.47 72.55L45.59 78.3L50.38 82.13L57.08 79.26L58.04 71.6L48.47 72.55ZM79.11 78.3L78.15 69.68L85.81 69.68L89.64 75.43L85.81 80.21L79.11 78.3ZM83.89 51.49L75.28 53.4L73.36 43.83L81.02 37.13L87.73 41.91L83.89 51.49Z" />
					<path id="Shape 528" class="shp15" d="M31.23 1.7L41.76 18.93L45.59 1.7L31.23 1.7ZM86.77 -0.22L81.98 17.98L72.4 1.7L86.77 -0.22ZM104 40L119.32 30.42L105.92 24.68L104 40ZM105.92 75.43L123.15 80.21L117.41 64.89L105.92 75.43ZM16.87 38.08L-4.2 32.34L12.08 25.64L16.87 38.08ZM19.74 81.17L3.46 88.83L4.42 75.43L19.74 81.17ZM46.55 103.19L39.85 122.34L30.27 107.02L46.55 103.19ZM87.73 99.36L98.26 118.51L101.13 101.28L87.73 99.36ZM59 37.13L49.42 46.7L40.81 44.79L45.59 35.21L59 37.13ZM81.98 36.17L81.98 44.79L73.36 55.32L70.49 40L81.98 36.17ZM86.77 67.77L84.85 76.38L76.24 68.72L86.77 67.77ZM59.96 69.68L51.34 78.3L43.68 78.3L43.68 68.72L59.96 69.68Z" />
					<path id="Shape 521 copy" class="shp16" d="M36.02 109.9L46.55 104.15L51.34 114.68L41.76 118.51L38.89 116.6L36.02 109.9ZM85.81 111.81L87.73 100.32L97.3 103.19L96.34 112.77L94.43 113.73L85.81 111.81ZM110.71 85L106.87 75.43L115.49 69.68L117.41 71.6L120.28 80.21L113.58 85L110.71 85ZM114.53 43.83L104.96 39.04L105.92 29.47L107.83 27.55L116.45 30.42L117.41 34.25L114.53 43.83Z" />
					<path id="Shape 528 copy" class="shp17" d="M31.23 1.7L41.76 18.93L45.59 1.7L31.23 1.7ZM86.77 -0.22L81.98 17.98L72.4 1.7L86.77 -0.22ZM104 40L119.32 30.42L105.92 24.68L104 40ZM105.92 75.43L123.15 80.21L117.41 64.89L105.92 75.43ZM16.87 38.08L-4.2 32.34L12.08 25.64L16.87 38.08ZM19.74 81.17L3.46 88.83L4.42 75.43L19.74 81.17ZM46.55 103.19L39.85 122.34L30.27 107.02L46.55 103.19ZM87.73 99.36L98.26 118.51L101.13 101.28L87.73 99.36ZM59 37.13L49.42 46.7L40.81 44.79L45.59 35.21L59 37.13ZM81.98 36.17L81.98 44.79L73.36 55.32L70.49 40L81.98 36.17ZM86.77 67.77L84.85 76.38L76.24 68.72L86.77 67.77ZM59.96 69.68L51.34 78.3L43.68 78.3L43.68 68.72L59.96 69.68Z" />
				</g>
			</g>
		</g>
	</g>
</svg>