<svg version="1.2" baseProfile="tiny-ps" xmlns="http://www.w3.org/2000/svg" viewBox="0 0 119 138" width="119" height="138">
	<title>[fo]Icon</title>
	<style>
		tspan { white-space:pre }
		.shp0 { opacity: 0;fill: #000000 } 
		.shp1 { fill: #abb689 } 
		.shp2 { opacity: 0.4;fill: #f73939 } 
		.shp3 { fill: #6c5f4e } 
		.shp4 { fill: #9b2e2e } 
		.shp5 { fill: #c23535 } 
		.shp6 { fill: #dc4040 } 
		.shp7 { opacity: 0.302;mix-blend-mode: multiply;fill: #552424 } 
		.shp8 { fill: #f7eadc } 
		.shp9 { fill: #5f5953 } 
		.shp10 { fill: #474039 } 
		.shp11 { opacity: 0.4;mix-blend-mode: multiply;fill: #5f5953 } 
		.shp12 { fill: #c1c4a2 } 
		.shp13 { fill: #ada481 } 
		.shp14 { opacity: 0.302;fill: #4e4740 } 
		.shp15 { fill: #e3e5cd } 
		.shp16 { fill: #cf9959 } 
		.shp17 { fill: #a16738 } 
	</style>
	<g id="[fo]Icon">
		<g id="common_icon_poition_red">
			<path id="bg" class="shp0" d="M112.92 -7.34C82.86 -22.61 62.49 -25.9 54.74 -26.86C52.92 -27.09 51.09 -27.09 49.27 -26.86C41.52 -25.9 21.14 -22.61 -8.94 -7.34C-12.62 -5.47 -15.68 -2.57 -17.76 0.99C-23.33 10.58 -34.05 31.97 -37.82 60.25C-38.06 62.05 -38.06 63.9 -37.82 65.7C-34.05 93.98 -23.33 115.37 -17.76 124.96C-15.68 128.52 -12.62 131.42 -8.94 133.29C21.13 148.56 41.5 151.84 49.25 152.81C51.07 153.04 52.9 153.04 54.72 152.81C62.47 151.85 82.85 148.56 112.92 133.29C116.61 131.42 119.67 128.52 121.75 124.96C127.32 115.37 138.03 93.98 141.81 65.7C142.05 63.9 142.05 62.05 141.81 60.25C138.03 31.97 127.32 10.57 121.75 0.99C119.67 -2.57 116.61 -5.47 112.92 -7.34Z" />
			<g id="icon">
				<g id="poition_red">
					<g id="Group 94">
						<path id="Shape 207" class="shp1" d="M84.3 32.46L91.33 37.65L102.38 53.12L106.14 75.74L101.56 96.16L90.76 111.12L70.78 121.28L48.19 124.92L29.28 120.56L11.23 104.24L1.74 77.89L1.52 61.23L5.72 52.62L17.62 43.31L71.2 30.14L84.3 32.46Z" />
						<path id="Shape 215" class="shp2" d="M9.21 60.56L7.96 67.37L7.32 82.12L12.41 99.3L21.77 109.92L30.42 116.56L47.35 119.72L67.78 117.97L85.57 109.77L98.45 93.93L101.91 77.6L100.16 60.15L95.17 50.84L83.06 41.41L16.26 53.01L9.21 60.56Z" />
						<path id="Shape 212" class="shp3" d="M83.99 45.44L89.04 48.62L93.96 58.9L95.76 72.2L92.32 87.42L10.46 76.34L10.96 64.55L21.28 48.3L71.86 43.06L83.99 45.44Z" />
						<path id="Shape 208" class="shp4" d="M13.81 65.65L10.8 68.47L10.3 80.29L18.33 97.64L28.71 109.35L44.47 115.44L62.75 114.55L79.4 107.32L91.1 95.6L94.44 85.47L95.72 74.24L94.74 71.14L82.43 67.56L54.12 65.37L31.37 64.42L13.81 65.65Z" />
						<path id="Shape 211" class="shp5" d="M55.25 93.65L59.23 95.9L59.1 99.97L55.98 102.86L51.94 102.62L49.05 98.38C49.05 98.38 50.15 94.41 50.19 94.39C50.22 94.36 55.25 93.65 55.25 93.65ZM68.51 91.3L70.53 92.43L70.44 95.5L66.36 95.27L66.45 92.21L68.51 91.3ZM36.65 81.59L40.61 81.78L40.54 83.79L38.49 85.69L36.58 83.59L36.65 81.59ZM28.55 87.18L30.52 87.29L31.39 90.34L27.42 91.13L26.55 88.08L28.55 87.18ZM52.58 82.37L54.55 83.48L54.46 86.51L50.48 85.29L52.58 82.37ZM65.72 82.01L67.78 81.09L69.75 83.22L67.66 85.15L65.66 84.03L65.72 82.01Z" />
						<path id="Shape 209" class="shp6" d="M96.76 74.29L93.57 77.22L76.04 77.42L51.74 77.3L25.13 74.06L14.53 71.59L11.8 67.53L19.96 57.06L96.97 64.09L96.76 74.29Z" />
						<path id="Shape 217" class="shp7" d="M85.01 45.47L84.84 52.5L74.26 67.21L57.73 78.59L36.62 82.59L35.45 87.54L37.07 97.7L44.74 107.28L57.72 112.18L74.17 110.11L83.54 107.57L90.96 101.79L86.59 110.87L70.86 118.17L46.31 120.68L29.47 115.48L14.27 101.42L6.44 80.1L7.08 65.37L9.46 54.71L85.01 45.47Z" />
						<path id="Shape 216" class="shp8" d="M91.05 50.7L88.83 57.69L83.56 63.55L88.49 72.9L88.28 82.08L94.55 80.34L98.8 76.43L98.96 68.25L96.03 58.97L91.05 50.7ZM87.11 88.18L93.36 87.47L97.57 85.62L96.4 91.75L92.12 96.68L86.97 94.34L87.11 88.18Z" />
					</g>
					<path id="Shape 206" class="shp9" d="M76.81 22.31L82.76 26.28L85.74 35.21L83.76 49.1L73.83 62.01L53.98 71.93L35.13 75.9L18.26 73.91L5.35 63L2.38 51.09L6.35 42.16L76.81 22.31Z" />
					<path id="Shape 218" class="shp10" d="M72.84 59.03L81.77 48.11L85.74 36.2L86.73 49.1L78.79 64.98L49.02 79.87L18.26 77.88L0.39 65.97L0.39 45.13L70.85 31.24L75.82 40.17L67.88 52.08L61.92 57.04L61.92 60.02L64.9 62.01L72.84 59.03Z" />
					<path id="Shape 221" class="shp11" d="M10.32 53.07L9.32 58.04L10.32 64.98L15.28 72.92L20.24 75.9L14.29 65.97L13.29 59.03L15.28 54.07L10.32 53.07ZM25.2 58.04L24.21 63L27.19 70.94L32.15 73.91L43.07 75.9L47.04 74.91L34.13 71.93L29.17 66.97L28.18 61.01L29.17 58.04L25.2 58.04ZM43.07 57.04L44.06 62.01L47.04 65.97L52.99 68.95L66.88 69.94L68.87 65.97L54.97 65.97L50.01 63L47.04 57.04L43.07 57.04ZM58.94 52.08L64.9 55.06L71.85 57.04L81.77 56.05L83.76 54.07L74.82 54.07L66.88 52.08L62.91 49.1L58.94 52.08ZM70.85 42.16L79.79 41.16L87.72 44.14L88.72 40.17L79.79 37.19L72.84 37.19L70.85 42.16ZM75.54 28.65L81.4 29.01L88.86 30.96L88.52 27.8L74.82 25.29L75.54 28.65ZM7.34 47.12L4.36 50.1L2.38 57.04L-0.6 51.09L5.35 44.14L7.34 47.12Z" />
					<path id="Shape 205" class="shp12" d="M52.99 4.45L62.91 5.44L71.85 9.41L76.81 16.35L78.79 33.23L67.88 48.11L48.03 58.04L24.21 61.01L8.33 53.07L1.39 42.16L0.39 31.24L3.37 24.29L14.29 16.35L32.15 9.41L52.99 4.45Z" />
					<path id="Shape 213" class="shp13" d="M14.29 27.27L13.29 32.23L17.26 39.18L28.18 44.14L40.09 43.15L52 39.18L60.93 32.23L64.9 22.31L62.91 15.36L56.96 12.38L14.29 27.27Z" />
					<path id="Shape 214" class="shp14" d="M7.34 38.19L17.26 48.11L29.17 51.09L47.04 48.11L61.92 39.18L68.87 30.25L69.86 17.35L68.87 13.38L71.85 13.38L74.82 17.35L75.82 31.24L68.87 41.16L57.95 49.1L44.06 55.06L25.2 56.05L11.31 51.09L6.35 43.15L7.34 38.19Z" />
					<path id="Shape 219" class="shp15" d="M78.79 30.25L75.82 27.27L73.83 16.35L69.86 13.38L60.93 9.41L52 11.39L13.29 23.3L6.35 26.28L3.37 33.23L2.38 39.18L-2.58 41.16L-0.6 18.34L35.13 0.48L68.87 0.48L82.76 15.36L78.79 30.25Z" />
					<path id="Shape 204" class="shp16" d="M61.92 17.35L58.94 7.42L51.01 0.48L35.13 0.48L17.26 7.42L12.3 20.32L14.29 32.23L21.23 38.19L33.14 41.16L51.01 36.2L59.94 27.27L61.92 17.35Z" />
					<path id="Shape 220" class="shp17" d="M10.32 18.34L15.28 26.28L22.23 32.23L32.15 34.22L34.13 29.26L37.11 33.23L47.04 30.25L55.97 24.29L58.94 16.35L59.94 12.38L63.91 13.38L60.93 49.1L4.36 43.15L10.32 18.34ZM50.01 20.32L52 17.35L50.01 12.38L45.05 12.38L43.07 17.35L46.04 20.32L50.01 20.32ZM34.13 13.38L38.1 11.39L38.1 9.41L33.14 7.42L31.16 10.4L34.13 13.38ZM35.13 17.35L38.1 18.34L38.1 20.32L35.13 21.32L33.14 19.33L35.13 17.35Z" />
				</g>
			</g>
		</g>
	</g>
</svg>