<svg version="1.2" baseProfile="tiny-ps" xmlns="http://www.w3.org/2000/svg" viewBox="0 0 125 127" width="125" height="127">
	<title>[fo]Icon</title>
	<style>
		tspan { white-space:pre }
		.shp0 { opacity: 0;fill: #000000 } 
		.shp1 { fill: #734e34 } 
		.shp2 { fill: #865d40 } 
		.shp3 { fill: #52331c } 
		.shp4 { fill: #b3a8a1 } 
		.shp5 { opacity: 0.4;fill: #847972 } 
		.shp6 { fill: #8c837d } 
		.shp7 { fill: #dcd5d0 } 
	</style>
	<g id="[fo]Icon">
		<g id="common_icon_shield_C">
			<path id="bg" class="shp0" d="M118.92 -15.34C88.86 -30.61 68.49 -33.9 60.74 -34.86C58.92 -35.09 57.09 -35.09 55.27 -34.86C47.52 -33.9 27.14 -30.61 -2.94 -15.34C-6.62 -13.47 -9.68 -10.57 -11.76 -7.01C-17.33 2.58 -28.05 23.97 -31.82 52.25C-32.06 54.05 -32.06 55.9 -31.82 57.7C-28.05 85.98 -17.33 107.37 -11.76 116.96C-9.68 120.52 -6.62 123.42 -2.94 125.29C27.13 140.56 47.5 143.84 55.25 144.81C57.07 145.04 58.9 145.04 60.72 144.81C68.47 143.85 88.85 140.56 118.92 125.29C122.61 123.42 125.67 120.52 127.75 116.96C133.32 107.37 144.03 85.98 147.81 57.7C148.05 55.9 148.05 54.05 147.81 52.25C144.03 23.97 133.32 2.57 127.75 -7.01C125.67 -10.57 122.61 -13.47 118.92 -15.34Z" />
			<g id="icon">
				<g id="shield_C">
					<path id="Shape 46" class="shp1" d="M45.08 11.11L77.3 12.46L99.8 29.67L108.74 65.05L98.01 93.03L67.11 107.62L35.72 104.2L12.82 82.01L11.18 50.04L21.99 23.05L45.08 11.11Z" />
					<path id="Shape 49" class="shp2" d="M58.64 102.3L58.03 22.08L62.93 20.67L61.66 65.93L63.65 65.77L64.25 36.62L65.41 38.53L65.96 81.63L67.96 81.47L69.56 52.23L71.38 50.08L73.23 23.84L75.3 24.67L71.85 92.18L69.94 93.34L69.69 102.39L58.64 102.3ZM52.05 22.58L52.84 92.75L51.09 95.9L50.02 82.95L48.19 85.11L48.68 103.13L46.68 103.29L46.14 90.41L45 91.42L45.52 101.38L41.45 100.71L38.35 26.72L39.26 25.64L40.83 32.53L43.66 32.3L43.49 28.3L44.33 26.22L45.64 42.17L47.56 41.01L47.73 30.96L49.64 29.8L49.14 23.82L52.05 22.58ZM36.22 98.14L32.61 30.2L29.79 32.44L31.18 61.43L29.19 61.59L28.45 52.62L26.45 52.79L27.52 77.78L26.6 78.86L24.55 41.91L22.81 45.06L25.6 90.99L30.91 94.56L31.08 84.51L32 83.43L32.09 72.39L33 71.31L34.07 96.31L36.22 98.14ZM79.41 98.58L80.93 56.31L78.69 53.49L78.54 27.41L80.7 29.24L80.44 50.33L82.43 50.17L83.52 27L87.67 28.66L86.56 75.91L88.64 76.75L91.08 33.4L93.23 35.23L90.79 90.62L84.14 95.18L84.32 85.13L82.32 85.29L82.31 97.34L79.41 98.58ZM93.53 87.38L96.3 48.02L98.37 48.85L96.36 85.14L93.53 87.38Z" />
					<path id="Shape 48" class="shp3" d="M38.44 15.67L38.57 65.83L37.33 62.93L34.53 17L38.44 15.67ZM85.61 15.79L59.04 9.96L25.56 17.74L12.01 47.96L17 87L23 91L19.39 64.41L22.64 43.07L29.62 30.45L37.35 26.8L51.06 22.66L66 22L82 28L91 34L97 46L102 68L107 60L102 31L85.61 15.79ZM40.54 101.79L39.72 91.83L40.14 72.73L38.23 73.89L37.47 101.04L40.54 101.79ZM54.66 102.63L55.27 61.44L57.26 61.28L57.73 103.38L54.66 102.63ZM57.7 18.09L57.02 46.25L55.79 19.26L57.7 18.09ZM75.67 21.05L74.12 57.15L75.2 59.1L75.16 83.12L76.2 84.08L78.7 21.93L75.67 21.05ZM78.41 98.66L77.68 77.65L76.84 91.77L73.85 92.02L73.59 101.07L78.41 98.66ZM92.7 89.45L96.06 32.99L93.74 29.16L92.7 89.45ZM24.77 93.06L23.3 51.04L22.06 48.13L22.77 93.23L24.77 93.06ZM72.37 58.01L73.01 65.08L71 74.95L64.26 79L56.4 79L48.54 73.93L47 63.97L47.66 58.84L72.37 58.01Z" />
					<path id="Shape 47" fill-rule="evenodd" class="shp4" d="M46.45 0.81L71 1.4L93.92 13.05L106 29L112 51L111 76L99.88 96.68L84.88 107.79L66.99 113.65L45.6 113.42L26.85 106.84L9.98 93.36L2.21 78.01L0.82 58.16L4.82 32.46L19.83 10.84L46.45 0.81ZM30.13 24.39L18.49 41.4L16.64 67.65L23.28 87.17L41.37 99.72L62 101L84 95L98 80L102 62L98.71 40.79L88.51 26.59L70.58 16.03L45.58 17.09L30.13 24.39ZM59.18 47.24L68.4 49.49L72.05 57.21L71.79 66.27L63.32 72.99L51.03 69.99L47.3 61.27L50.46 50.97L59.18 47.24Z" />
					<path id="Shape 51" class="shp5" d="M47.4 -0.7L52.41 22.85L39.89 27.47L31.43 16.45L33.15 6.15L47.4 -0.7ZM19.36 56.29L11.55 58.29L-2 82L12.76 99.47L25 86L19.36 56.29ZM58.28 100.74L62.41 117.35L83.86 111.6L79.73 94.98L58.28 100.74ZM91.36 90.7L108.75 102.41L124.15 46.6L106.9 48.53L96.49 64.36L91.36 90.7ZM73.41 62.27L66.06 57.91L59.45 60.79L52.74 58.58L43.46 65.05L52.25 72.71L63.08 74.64L73.34 68.35L73.41 62.27Z" />
					<path id="Shape 50" class="shp6" d="M46.4 75.97L46.74 59.51L53 61L56 65L60.3 61.98L62.49 61.51L67 66L71.7 61.81L78.01 61.36L71.2 84.51L46.4 75.97Z" />
					<path id="Shape 50 copy" class="shp7" d="M60 89L99 63L102 70L100 77L102 79L100 80L92 92L83 99L61 105L39.46 102.88L28.75 94.73L24.77 95.06L21.45 91.32L22.2 88.25L21 85L24 80L60 89ZM-6 -3L94 -11L111 26L106 29L90.51 14.38L80.05 9.22L76.06 9.55L70.67 4.98L47.66 5.88L36.86 8.78L23.41 15.91L21.74 20.06L18.83 21.31L9.77 33.09L7.1 49.29L7.52 54.27L4.85 56.42L4.68 66.47L7 80L-3 77L-6 -3ZM62.51 51.06L59.43 50.31L54.62 52.72L56.94 56.54L60.84 55.21L62.51 51.06Z" />
				</g>
			</g>
		</g>
	</g>
</svg>