<svg version="1.2" baseProfile="tiny-ps" xmlns="http://www.w3.org/2000/svg" viewBox="0 0 134 130" width="134" height="130">
	<title>[fo]Icon</title>
	<style>
		tspan { white-space:pre }
		.shp0 { opacity: 0;fill: #000000 } 
		.shp1 { fill: #3f5315 } 
		.shp2 { fill: #35480e } 
		.shp3 { fill: #7bb22d } 
		.shp4 { fill: #95d041 } 
		.shp5 { fill: #5b8d15 } 
	</style>
	<g id="[fo]Icon">
		<g id="common_icon_lucky">
			<path id="bg" class="shp0" d="M122.92 -10.34C92.86 -25.61 72.49 -28.9 64.74 -29.86C62.92 -30.09 61.09 -30.09 59.27 -29.86C51.52 -28.9 31.14 -25.61 1.06 -10.34C-2.62 -8.47 -5.68 -5.57 -7.76 -2.01C-13.33 7.58 -24.05 28.97 -27.82 57.25C-28.06 59.05 -28.06 60.9 -27.82 62.7C-24.05 90.98 -13.33 112.37 -7.76 121.96C-5.68 125.52 -2.62 128.42 1.06 130.29C31.13 145.56 51.5 148.84 59.25 149.81C61.07 150.04 62.9 150.04 64.72 149.81C72.47 148.85 92.85 145.56 122.92 130.29C126.61 128.42 129.67 125.52 131.75 121.96C137.32 112.37 148.03 90.98 151.81 62.7C152.05 60.9 152.05 59.05 151.81 57.25C148.03 28.97 137.32 7.57 131.75 -2.01C129.67 -5.57 126.61 -8.47 122.92 -10.34Z" />
			<g id="icon">
				<g id="clover">
					<path id="Shape 504" class="shp1" d="M74.05 86L82.51 99.58L90.77 105.85L99.73 108.04L100.65 112.08L98.34 116.2L92.68 116.36L89.4 114.82L80.35 109.38L71.1 96.64L69.18 85.32L74.05 86Z" />
					<path id="Shape 505" class="shp2" d="M88.28 102.1L88.28 106.97L85.85 109.09L92.57 114.36L100.69 114.52L100.15 117.82L85.57 118.2L66.26 100.22L79.25 90.19L88.28 102.1Z" />
					<path id="Shape 397" class="shp3" d="M56.73 58.24L47.03 39.56L37.32 26.57L26 20.07L16.29 22.51L12.25 29.82L10.63 37.94L11.44 45.25L6.59 46.87L0.93 51.75L0.12 59.87L2.55 69.61L9.82 74.49L16.29 76.11L28.43 72.86L39.75 67.18L56.73 58.24ZM54.31 58.24L75.48 51.08L92.83 37.84L99.6 24.42L97.89 13.28L90.7 8.7L79.38 7.89L70.22 11.23L69.36 8.32L64.39 3.36L54.61 0.82L45.83 3.37L39.69 13.7L39.96 27.27L43.29 37.85L54.31 58.24ZM55.12 57.43L70.9 47.28L87.05 42.37L100.52 40.79L112.85 44.27L119.72 50.68L120.88 60.01L116.58 67.18L109.3 71.24L111.73 78.55L111.73 88.29L104.45 95.6L92.32 97.23L80.19 94.79L68.87 86.67L63.2 74.49L55.12 57.43ZM54.51 57.2L64.29 67.54L72.63 82.36L75.82 99.51L71.32 109.34L59.56 115.96L49.34 114.99L43.73 109.23L40.79 103.36L36.3 106.47L26.56 107.49L19.21 102.38L14.55 93.87L15.22 84.82L20.09 77.55L31.28 69.08L44.71 60.78L54.51 57.2Z" />
					<path id="Shape 398 copy" class="shp4" d="M12.25 45.25L4.16 50.93L2.55 59.06L4.16 67.18L11.44 72.05L22.77 71.24L33.28 66.37L44.6 60.68L55.12 59.06L30.85 43.63L12.25 45.25ZM56.73 59.06L68.06 70.43L75.34 83.42L76.14 87.48L82.61 90.73L93.94 93.17L102.83 91.54L109.3 86.67L110.11 78.55L106.88 67.18L81 57.43L56.73 59.06ZM18.72 83.42L23.57 76.11L29.24 72.05L38.94 65.55L49.45 63.12L55.93 62.3L66.44 71.24L72.1 84.23L73.72 99.66L42.18 95.6L18.72 83.42ZM70.48 107.79L59.97 112.66L50.26 111.85L43.79 106.16L41.37 100.48L34.9 103.73L27.62 103.73L20.34 98.85L17.1 91.54L17.91 83.42L20.34 80.17L26.81 80.17L38.13 82.61L45.41 88.29L54.31 87.48L66.44 88.29L72.91 93.17L73.72 99.66L70.48 107.79ZM48.65 88.29L49.45 82.61C49.45 82.61 50.98 75.28 51.07 75.3C51.17 75.31 45.41 81.8 45.41 81.8L42.18 88.29L45.41 89.92L48.65 88.29Z" />
					<path id="Shape 398" class="shp5" d="M56.73 54.18L54.31 52.56L48.65 40.38L42.18 32.26L42.98 24.95L68.06 22.51L87.47 29.82L90.7 36.32L89.08 38.75L81.81 42.81L73.72 43.63L64.01 47.69L56.73 54.18ZM54.31 58.24L39.75 52.56L23.57 47.69L11.44 45.25L11.44 39.56L13.87 30.63L18.72 26.57L26.81 25.76L35.71 29.82L45.41 39.56L54.31 58.24ZM56.73 59.06L70.48 60.68L83.42 62.3L95.55 64.74L106.88 68.8L114.16 63.93L117.39 58.24L116.58 50.93L110.92 46.06L99.6 42.81L84.23 43.63L67.25 48.5L59.16 55L56.73 59.06ZM42.18 28.19L41.37 14.39L47.84 5.45L55.12 3.02L63.2 4.64L68.06 9.51L68.87 14.39L79.38 10.33L90.7 11.14L95.55 15.2L97.17 24.95L91.51 36.32L85.04 33.07L74.53 30.63L64.01 30.63L61.59 35.5L59.97 30.63L53.5 28.19L47.03 27.38L42.18 28.19Z" />
				</g>
			</g>
		</g>
	</g>
</svg>