<svg version="1.2" baseProfile="tiny-ps" xmlns="http://www.w3.org/2000/svg" viewBox="0 0 166 150" width="166" height="150">
	<title>[fo]Icon</title>
	<style>
		tspan { white-space:pre }
		.shp0 { opacity: 0;fill: #000000 } 
		.shp1 { fill: #8e6331 } 
		.shp2 { fill: #693a1d } 
		.shp3 { fill: #5a231f } 
		.shp4 { fill: #6a2924 } 
		.shp5 { fill: #9b2921 } 
		.shp6 { fill: #c64138 } 
		.shp7 { fill: #d2aa70 } 
		.shp8 { opacity: 0.502;mix-blend-mode: soft-light;fill: #d2aa70 } 
		.shp9 { opacity: 0.502;mix-blend-mode: multiply;fill: #9b2921 } 
		.shp10 { fill: #9e906c } 
		.shp11 { fill: #5c382e } 
		.shp12 { fill: #7d6863 } 
		.shp13 { fill: #d7d2b2 } 
	</style>
	<g id="[fo]Icon">
		<g id="common_icon_target">
			<path id="bg" class="shp0" d="M158.93 14.66C128.86 -0.61 108.49 -3.9 100.74 -4.86C98.92 -5.09 97.09 -5.09 95.27 -4.86C87.52 -3.9 67.14 -0.61 37.06 14.66C33.38 16.53 30.32 19.43 28.24 22.99C22.67 32.58 11.95 53.97 8.18 82.25C7.94 84.05 7.94 85.9 8.18 87.7C11.95 115.98 22.67 137.37 28.24 146.96C30.32 150.52 33.38 153.42 37.06 155.29C67.13 170.56 87.5 173.84 95.25 174.81C97.07 175.04 98.9 175.04 100.72 174.81C108.47 173.85 128.85 170.56 158.92 155.29C162.61 153.42 165.67 150.52 167.75 146.96C173.32 137.37 184.03 115.98 187.81 87.7C188.05 85.9 188.05 84.05 187.81 82.25C184.03 53.97 173.32 32.57 167.75 22.99C165.67 19.43 162.61 16.53 158.93 14.66Z" />
			<g id="icon">
				<g id="target">
					<path id="Shape 354" class="shp1" d="M128.65 57.31L140.69 57.29L152.39 135.58L141.42 136.51L124.32 135.97L122.98 132.06L115.47 67.47L128.65 57.31ZM61.58 99.2L51.84 131.61L54.29 136.08L72.01 135.75L74.57 133.9L80.38 109.02L61.58 99.2Z" />
					<path id="Shape 355" class="shp2" d="M118.23 123.44L130.93 119.34L136.34 123.9L138.78 140.75L157.88 141.13L143 49.06L110.38 54.86L118.23 123.44ZM61.2 137.74L64.55 126.13L59.86 121.77L55.99 109.2L61.43 91.21L90.44 96.04L77.61 139.37L61.2 137.74ZM140.09 132.61L120.16 134.31L119.59 139.38L143.67 139.33L140.09 132.61ZM65.37 132.86L52.35 133.64L50.92 137.88L64.92 136.96L65.37 132.86Z" />
					<path id="Shape 353" class="shp3" d="M106 28L127 38L135 47L140 65L138 87L130 109L114 125L95 130L80 129L59 123L56 116L106 28Z" />
					<path id="Shape 365" class="shp4" d="M140 60L137 57L134 50L126 44L115 42L99 30L104 23L145 40L140 60Z" />
					<g id="Group 104">
						<path id="Shape 352" class="shp5" d="M51 73L63 49L83 30L104 28L121 37L126 64L120 94L105 118L80 127L57 120L49 96L51 73Z" />
						<path id="Shape 364" class="shp6" d="M127 44L121 44L116 38L100 32L83 34L65 50L55 68L44 71L70 17L126 22L127 44Z" />
						<path id="Shape 357" class="shp7" d="M79.31 44.25L94.14 40.48L105.28 42.92L110.84 53.64L112.71 70.57L107.79 91.85L94.58 107.55L76.86 113.47L64.52 107.09L57.91 95.41L57.98 77.39L66.89 55.9L79.31 44.25Z" />
						<path id="Shape 356" class="shp5" d="M82.77 53.08L91.66 50.62L99.9 55.21L102.51 67.09L98.5 86.32L89.12 98.82L78.29 102.38L68.05 97.9L64.44 86.07L67.61 69.88L75.09 59.49L82.77 53.08Z" />
						<path id="Shape 358" class="shp7" d="M76.87 75.95L81.69 67.19L86.36 64.51L89.61 66.07L89.74 74.13L87.89 82.48L81.52 87.42L77.56 87.97L76.01 84.15L76.87 75.95Z" />
					</g>
					<path id="Shape 367" class="shp8" d="M102 32L85 68L86 69L95 56L102 32ZM116 40L97 58L91 67L115 44L116 40ZM88 72L106 64L106 66L118 66L98 70L88 74L88 72ZM124 49L111 54L101 61L125 52L124 49ZM91 76L106 75L107 77L121 77L120 80L102 79L91 76ZM87 79L103 85L110 92L86 81L87 79ZM85 59L90 45L95 27L90 27L87 42L88 43L85 59ZM83 31L82 68L81 69L80 53L83 31ZM74 44L76 60L81 72L78 74L75 61L73 46L74 44ZM77 74L70 65L63 52L64 50L77 74ZM73 75L63 72L56 69L58 65L65 69L65 71L73 75ZM73 77L60 76L52 79L73 77ZM72 81L55 87L55 86L48 90L49 92L53 92L58 90L59 87L73 82L72 81ZM73 88L59 97L53 104L54 106L70 94L73 88ZM79 85L73 95L61 118L63 119L72 100L76 99L79 85ZM82 84L83 121L80 123L80 94L82 84ZM85 86L99 97L104 99L107 99L110 102L111 107L106 112L95 101L94 96L85 86ZM87 95L97 117L94 119L88 102L87 95Z" />
					<path id="Shape 366" class="shp9" d="M84 69L86 72L85 75L86 77L84 80L90 127L86 128L81 87L76 128L73 127L76 103L69 126L66 126L77 91L79 80L81 70L84 69Z" />
					<g id="Group 107">
						<path id="Shape 362" class="shp10" d="M46 81L40 82L36 84L25 86L17 84L8 84L0 83L10 81L17 81L23 80L46 81Z" />
						<path id="Shape 360" class="shp11" d="M81 78L17 76L16 78L16 80L18 81L81 82L82 80L81 78Z" />
						<path id="Shape 363" class="shp12" d="M25 76L26 78L26 80L23 82L15 83L13 77L18 74L25 76Z" />
						<path id="Shape 361" class="shp13" d="M48 79L42 77L38 75L29 74L21 73L1 73L8 75L13 76L18 78L25 78L27 79L48 79Z" />
					</g>
					<g id="Group 106">
						<path id="Shape 362 copy 2" class="shp10" d="M53 61L48 60L44 60L31 57L26 54L23 55L15 53L12 51L16 50L12 48L18 48L24 49L21 47L28 49L37 51L53 61Z" />
						<path id="Shape 360 copy 2" class="shp11" d="M84 75L26 40L23 41L23 43L24 45L82 79L84 77L84 75Z" />
						<path id="Shape 363 copy 2" class="shp12" d="M33 43L33 45L32 47L29 48L21 45L23 39L27 37L33 43Z" />
						<path id="Shape 361 copy 2" class="shp13" d="M35 46L35 42L34 39L34 35L32 33L33 25L37 28L38 31L40 32L41 35L42 36L42 32L43 35L44 41L47 44L47 41L50 46L51 51L54 56L55 58L35 46Z" />
					</g>
					<g id="Group 105">
						<path id="Shape 362 copy" class="shp10" d="M59 17L63 12L63 5L66 0L68 7L67 12L69 9L69.67 14.22L69.31 19.63L69.1 21.86L70.69 19.32L71 25L70 32L69 41L59 17Z" />
						<path id="Shape 360 copy" class="shp11" d="M84 71L57 11L55 9L52 11L52 13L81 75L84 71Z" />
						<path id="Shape 363 copy" class="shp12" d="M59 14L56 7L50 10L52 17C52 17 55.9 18.05 56 18C56.1 17.95 58 17 58 17L59 14Z" />
						<path id="Shape 361 copy" class="shp13" d="M66 41L55 19L50.38 21.53L45.57 21.08L42.82 16.78L32.05 16.69L38.84 25.85L41.82 24.95L43.95 25.62L41.32 28.08L46.9 31.22L51.99 31.4L50.34 33.7L56.91 36.68L59.87 36.19L61 39L66 41Z" />
					</g>
				</g>
			</g>
		</g>
	</g>
</svg>