<svg version="1.2" baseProfile="tiny-ps" xmlns="http://www.w3.org/2000/svg" viewBox="0 0 123 134" width="123" height="134">
	<title>[fo]Icon</title>
	<style>
		tspan { white-space:pre }
		.shp0 { opacity: 0;fill: #000000 } 
		.shp1 { fill: #7b1f13 } 
		.shp2 { fill: #6b1a10 } 
		.shp3 { fill: #5b120b } 
		.shp4 { fill: #e2bb5d } 
		.shp5 { opacity: 0.502;mix-blend-mode: multiply;fill: #c88e63 } 
		.shp6 { opacity: 0.4;mix-blend-mode: multiply;fill: #d3ab54 } 
		.shp7 { opacity: 0.302;mix-blend-mode: overlay;fill: #fceb9e } 
		.shp8 { fill: #fceb9e } 
		.shp9 { opacity: 0.4;mix-blend-mode: overlay;fill: #ffffff } 
	</style>
	<g id="[fo]Icon">
		<g id="common_icon_shield_B">
			<path id="bg" class="shp0" d="M116.93 -11.34C86.86 -26.61 66.49 -29.9 58.74 -30.86C56.92 -31.09 55.09 -31.09 53.27 -30.86C45.52 -29.9 25.14 -26.61 -4.94 -11.34C-8.62 -9.47 -11.68 -6.57 -13.76 -3.01C-19.33 6.58 -30.05 27.97 -33.82 56.25C-34.06 58.05 -34.06 59.9 -33.82 61.7C-30.05 89.98 -19.33 111.37 -13.76 120.96C-11.68 124.52 -8.62 127.42 -4.94 129.29C25.13 144.56 45.5 147.84 53.25 148.81C55.07 149.04 56.9 149.04 58.72 148.81C66.47 147.85 86.85 144.56 116.92 129.29C120.61 127.42 123.67 124.52 125.75 120.96C131.32 111.37 142.03 89.98 145.81 61.7C146.05 59.9 146.05 58.05 145.81 56.25C142.03 27.97 131.32 6.57 125.74 -3.01C123.67 -6.57 120.61 -9.47 116.93 -11.34Z" />
			<g id="icon">
				<g id="shield_B">
					<path id="Shape 541" class="shp1" d="M58 9L9 26L15 80L68 112L105 71L107 49L102 14L58 9Z" />
					<path id="Shape 548" class="shp2" d="M60 24L62 32L64 43L69 116L107 70L107 9L64 9L60 24Z" />
					<path id="Shape 544" class="shp3" d="M92.28 24.68L83 25L71 22L68 25L63 27L56 26L52 25L40 30L25 32L18.11 24.82L60.25 10.87L95.93 19.41L92.28 24.68ZM15.86 50.04L23.16 54.52L19.59 60.79L20.86 64.71L28.13 68.21L37.17 68.59L34.32 70.79L36.66 75.64L41.72 76.29L45.71 76.01L48.91 78.8L53.97 79.45L57.89 78.17L66.7 79.7L74 76L79 78L85.78 75.37L86.52 71.31L82.32 69.46L89.23 68L94.08 65.65L97.8 61.39L96.61 58.46L93.34 54.68L99.26 53.27L100.98 49.14L100.77 46.14L98.57 43.29L104.27 38.88L104.6 28.84L89.98 34.86L65.43 56.62L14.89 36.08L11.45 44.33L15.86 50.04ZM19 50L16 66L13 45L19 50ZM100 40L102 51L105 53L108 52L107 36L100 40Z" />
					<path id="Shape 549 copy 7" class="shp1" d="M62 94L59 94L55 91L53 86L51 86L50 92L46 96L41 96L38 95L37 97L41 99L45 99L50 97L52 93L53 91L55 95L59 97L63 97L66 94L68 89L68 86L67 86L65 91L62 94ZM68.61 95.1L71.57 94.62L75.04 91.01L76.21 85.76L78.18 85.43L80.13 91.19L84.73 94.5L89.66 93.69L92.46 92.22L93.77 94.04L90.14 96.66L86.2 97.3L80.94 96.13L78.32 92.5L77.01 90.69L75.68 94.96L72.06 97.58L68.11 98.22L64.67 95.74L61.89 91.13L61.4 88.17L62.39 88.01L65.17 92.62L68.61 95.1ZM58 78L56 83L53 86L49 86L45 84L43 80L42 82L40 86L35 88L31 88L27 86L28 84L31 85L36 85L40 81L41 75L43 75L45 80L49 83L52 83L55 80L57 75L57 73L59 73L62 79L66 80L66 83L62 82L58 78ZM47 65L45 70L42 73L38 73L34 71L32 67L31 69L29 73L24 75L20 75L16 73L17 71L20 72L25 72L29 68L30 62L32 62L34 67L38 70L41 70L44 67L46 62L46 60L48 60L51 66L55 67L55 70L51 69L47 65ZM95.95 75.77L94.05 80.81L91.11 83.87L87.11 83.95L83.07 82.03L80.99 78.07L80.03 80.09L78.11 84.13L73.15 86.22L69.15 86.3L65.11 84.38L66.07 82.36L69.09 83.3L74.09 83.21L78.01 79.13L78.89 73.11L80.89 73.07L82.99 78.03L87.05 80.95L90.05 80.89L92.99 77.83L94.89 72.79L94.85 70.79L96.85 70.76L99.97 76.7L103.99 77.62L104.05 80.62L100.03 79.69L95.95 75.77ZM100.95 61.77L99.05 66.81L96.11 69.87L92.11 69.95L88.07 68.03L85.99 64.07L85.03 66.09L83.11 70.13L78.15 72.22L74.15 72.3L70.11 70.38L71.07 68.36L74.09 69.3L79.09 69.21L83.01 65.13L83.89 59.11L85.89 59.07L87.99 64.03L92.05 66.95L95.05 66.89L97.99 63.83L99.89 58.79L99.85 56.79L101.85 56.76L104.97 62.7L108.99 63.62L109.05 66.62L105.03 65.69L100.95 61.77ZM76.97 40.92L72.98 39.9L68.99 35.89L66.97 40.88L63.96 43.87L59.96 43.86L55.97 41.84L53.98 37.83L52.98 39.83L50.96 43.82L45.95 45.8L41.95 45.79L37.96 43.77L38.97 41.78L41.97 42.79L46.97 42.81L50.98 38.82L52 32.83L54 32.83L55.98 37.84L59.97 40.86L62.97 40.87L65.98 37.88L68 32.89L68.01 30.89L70.01 30.89L72.99 36.9L76.99 38.3L80.01 37.37L82.06 35.42L82.17 30.42L85.2 29.49L86.15 31.51L90.08 34.61L89.01 37.58L86.06 35.51L84.1 33.47L84.01 37.47L80.94 40.4L76.97 40.92ZM79 29L76.06 25.51L74.1 23.47L74.01 27.47L70.94 30.4L66.97 30.92L62.98 29.9L58.99 25.89L56.97 30.88L53.96 33.87L49.96 33.86L45.97 31.84L43.98 27.83L42.98 29.83L40.96 33.82L35.95 35.8L31.95 35.79L27.96 33.77L28.97 31.78L31.97 32.79L36.97 32.81L40.98 28.82L42 22.83L44 22.83L45.98 27.84L49.97 30.86L52.97 30.87L55.98 27.88L58 22.89L58.01 20.89L60.01 20.89L62.99 26.9L66.99 28.3L70.01 27.37L72.06 25.42L72.17 20.42L75.2 19.49L76.15 21.51L79 24L83 26L86 25L88 19L90 19L90 24L87 28L84 30L79 29Z" />
					<path id="Shape 543" class="shp4" d="M72.44 69.21L61.49 69.9L54.78 74.34L50.86 75.61L47.66 72.83L48.44 69.76L43.6 72.11L35.48 70.67L33.27 67.81L36.06 64.61L40.84 61.27L28.87 62.1L20.75 60.66L18.47 56.81L22.12 51.55L30.89 47.93L22.77 46.49L12.45 42.19L10.48 28.3L24.37 26.33L40.52 42.25L64.09 49.68L80.84 37.94L90.93 18.44L102.98 17.86L104.85 30.76L97.87 38.14L91.97 40.42L97.96 40.13L99.63 42.15L98.91 46.21L95.13 49.48L86.59 53.69L92.34 52.68L96.47 54.4L96.68 57.39L93.9 60.59L88.06 63.68L81.07 64.01L85.21 66.82L86.47 69.2L84.62 71.33L78.7 72.74L74.57 71.02L72.44 69.21ZM72.07 106.43L73.17 87.36L74.08 64.34L71.93 47.13L68.99 41.51L64.9 39.7L61 41.89L58.34 49.02L59.19 67L61.33 90.93L64.05 106.77L72.07 106.43ZM91.53 98.33L72.8 117.26L67.01 120.6L39.86 104.86L11.3 83.34L8.96 78.61L5.48 57.31L9.2 53.13L7.07 51.32L4.94 49.51L0.1 23.24L1.69 17.26L22.68 16.42L41.29 10.12L54.63 0.17L58.62 -0.11L75.19 7.78L91.4 9.57L104.23 6.03L106.42 8.82L109.87 42.99L108.79 72.58L91.53 98.33ZM101.99 47L101.26 21.99L100.12 20.06L84.09 20.17L71.66 16.63L67.57 16.08L66.03 20.28L61.51 24.81L56.21 22.39L52.78 18.75L48.91 20.19L35.28 24.57L17.53 28.81L14.68 31.01L14.93 49.04L18.59 72.84L20.86 76.69L41.4 92.87L62.94 103.86L69.23 105.56L78.64 97.11L89.11 85.61L100.6 70.15L101.25 65.09L101.48 54.05L105.2 49.78L101.99 47Z" />
					<path id="Shape 545" class="shp5" d="M54.55 -1.06L57.81 4.55L60.76 18.27L61.61 24.21L64.84 39.91L66 46L68 61L68.8 79.56L69 105L68.58 116.23L65.37 123.13L81.11 128.03L120.83 79.1L113.56 -2.93L54.55 -1.06Z" />
					<path id="Shape 550" class="shp6" d="M68.84 72L75.84 66L81.84 64L84.84 59L96.84 57L101 63L112 63L114 81L68 125L67 120L68 116L69 104L68.84 72Z" />
					<path id="Shape 550 copy" class="shp7" d="M-12 0L-1 62L17 59L31 55L53 67L69 72L69 62L66 42L62 25L61 16L56 -2L-12 0Z" />
					<path id="Shape 549" class="shp8" d="M104 12L96 15L85 14L83 16L80 12L75 12L61 5L58 5L50 11L44 15L26 22L7 23L-2 14L56 -5L108 3L104 12Z" />
					<path id="Shape 549 copy" class="shp9" d="M65 41L66 47L63 55L58 50L61 42L65 41ZM89 23L84 35L77 42L71 45L73 49L81 45L88 35L90 26L89 23ZM56 48L41 43L34 38L28 31L25 30L32 40L43 47L56 53L60 57L64 55L60 47L56 48Z" />
				</g>
			</g>
		</g>
	</g>
</svg>