<svg version="1.2" baseProfile="tiny-ps" xmlns="http://www.w3.org/2000/svg" viewBox="0 0 126 134" width="126" height="134">
	<title>[fo]Icon</title>
	<style>
		tspan { white-space:pre }
		.shp0 { opacity: 0;fill: #000000 } 
		.shp1 { fill: #c2b69d } 
		.shp2 { fill: #a29270 } 
		.shp3 { fill: #e3d9c5 } 
		.shp4 { fill: #6d6450 } 
		.shp5 { fill: #312a1a } 
	</style>
	<g id="[fo]Icon">
		<g id="common_icon_skull">
			<path id="bg" class="shp0" d="M116.92 -10.34C86.86 -25.61 66.49 -28.9 58.74 -29.86C56.92 -30.09 55.09 -30.09 53.27 -29.86C45.52 -28.9 25.14 -25.61 -4.94 -10.34C-8.62 -8.47 -11.68 -5.57 -13.76 -2.01C-19.33 7.58 -30.05 28.97 -33.82 57.25C-34.06 59.05 -34.06 60.9 -33.82 62.7C-30.05 90.98 -19.33 112.37 -13.76 121.96C-11.68 125.52 -8.62 128.42 -4.94 130.29C25.13 145.56 45.5 148.84 53.25 149.81C55.07 150.04 56.9 150.04 58.72 149.81C66.47 148.85 86.85 145.56 116.92 130.29C120.61 128.42 123.67 125.52 125.75 121.96C131.32 112.37 142.03 90.98 145.81 62.7C146.05 60.9 146.05 59.05 145.81 57.25C142.03 28.97 131.32 7.57 125.75 -2.01C123.67 -5.57 120.61 -8.47 116.92 -10.34Z" />
			<g id="icon">
				<g id="skull">
					<path id="Shape 154" class="shp1" d="M11.39 90.15L4.09 78.27L0.44 57.24L5.92 31.65L24.17 8.79L46.98 0.56L72.53 0.56L93.52 8.79L105.38 22.5L104.47 27.08L108.12 27.99L112.68 49.01L109.95 67.3L99 86.5L79.83 97.47L63.41 101.12L48.81 102.04L32.38 101.12L17.78 95.64L11.39 90.15Z" />
					<path id="Shape 331" class="shp2" d="M110.86 67.3L99 71.87L90.78 81.92L80.74 91.98L62.49 97.47L39.68 98.38L25.08 95.64L8.65 89.24L13.22 102.04L66.14 110.26L105.38 91.07L110.86 67.3Z" />
					<path id="Shape 330" class="shp3" d="M-8.69 49.01L11.39 4.22L68.88 -11.32L101.73 4.22L104.47 19.76L100.82 20.68L89.87 15.19L81.66 15.19L72.53 12.45L58.84 13.36L59.76 17.93L56.11 25.25L46.07 31.65L34.2 34.39L25.08 32.56L20.52 27.08L20.52 24.33L13.22 28.9L7.74 36.22L3.18 58.16L-8.69 49.01ZM32.38 72.78L33.29 66.38L29.64 67.3L27.82 72.78L24.17 78.27L25.08 81.92L25.99 78.27L29.64 73.7L32.38 72.78Z" />
					<path id="Shape 329" class="shp4" d="M106.3 20.68L99.91 31.65L94.43 38.05L88.05 40.79L83.48 43.53L78.01 43.53L74.36 47.19L79.83 52.67L84.4 46.27L90.78 42.62L96.26 40.79L97.17 46.27L99.91 49.01L100.82 49.01L99.91 45.36L99 38.96L104.47 30.73L109.95 26.16L106.3 20.68Z" />
					<path id="Shape 154 copy" class="shp1" d="M70.71 87.41L62.49 113.01L56.11 118.49L52.46 118.49L51.54 112.09L57.02 88.32L50.63 89.24L43.33 113.92L38.77 120.32L35.12 120.32L32.38 109.35L32.38 88.32L26.9 86.5L26.9 110.26L25.99 114.83L23.25 119.41L18.69 118.49L14.13 110.26L10.48 75.53L70.71 87.41Z" />
					<path id="Shape 328" class="shp5" d="M59.76 33.47L52.46 38.96L45.16 56.33L44.24 69.13L48.81 78.27L58.84 81.01L67.06 80.1L75.27 75.53L80.74 63.64L79.83 53.59L81.66 45.36L77.09 45.36L73.44 38.96L66.14 34.39L59.76 33.47ZM13.22 34.39L18.69 33.47L18.69 36.22L23.25 44.44L25.08 60.9L23.25 72.78L19.6 76.44L14.13 73.7L10.48 67.3L7.74 52.67L8.65 38.96L13.22 34.39ZM26.9 85.58L28.73 86.5L32.38 83.75L37.86 88.32L40.59 87.41L40.59 83.75L34.2 76.44L30.55 75.53L27.82 79.18L26.9 85.58Z" />
				</g>
			</g>
		</g>
	</g>
</svg>