<svg version="1.2" baseProfile="tiny-ps" xmlns="http://www.w3.org/2000/svg" viewBox="0 0 30 30" width="30" height="30">
	<title>MyInfo</title>
	<style>
		tspan { white-space:pre }
		.shp0 { fill: #d5b67c } 
	</style>
	<g id="MyInfo">
		<g id="stat">
			<g id="Icons">
				<path id="attack" fill-rule="evenodd" class="shp0" d="M30.01 0.72L30.01 8.18C30.01 8.37 29.94 8.55 29.8 8.68L14.97 23.48L17.61 26.11C17.84 26.34 17.84 26.71 17.61 26.94L16.32 28.22C16.14 28.4 15.86 28.44 15.63 28.32L8.13 24.34L5.8 26.66C5.92 27.53 5.65 28.45 4.97 29.13C3.83 30.27 1.97 30.27 0.83 29.13C-0.31 27.98 -0.31 26.14 0.83 24.99C1.51 24.32 2.43 24.05 3.31 24.17L5.63 21.85L1.44 13.97L3.03 12.39C3.26 12.16 3.63 12.16 3.86 12.39L6.49 15.02L21.32 0.22C21.45 0.08 21.63 0.01 21.82 0.01L29.3 0.01C29.69 0.01 30.01 0.33 30.01 0.72ZM24.66 6.86L23.14 5.34L10.29 18.17L11.82 19.68L24.66 6.86Z" />
			</g>
		</g>
	</g>
</svg>