<svg version="1.2" baseProfile="tiny-ps" xmlns="http://www.w3.org/2000/svg" viewBox="0 0 146 146" width="146" height="146">
	<title>MyInfo</title>
	<defs>
		<clipPath clipPathUnits="userSpaceOnUse" id="cp1">
			<path d="M66.5 0.78C102.8 0.78 132.22 30.2 132.22 66.5C132.22 102.8 102.8 132.22 66.5 132.22C30.2 132.22 0.78 102.8 0.78 66.5C0.78 30.2 30.2 0.78 66.5 0.78Z" />
		</clipPath>
	</defs>
	<style>
		tspan { white-space:pre }
		.shp0 { fill: #ca9464 } 
		.shp1 { fill: #a77349 } 
		.shp2 { fill: #926038 } 
		.shp3 { fill: #a5a69c } 
		.shp4 { fill: #86877f } 
		.shp5 { opacity: 0.4;mix-blend-mode: overlay;fill: #b5b5af } 
		.shp6 { opacity: 0.302;mix-blend-mode: overlay;fill: #584126 } 
		.shp7 { fill: #966845 } 
		.shp8 { fill: #d3d3cf } 
		.shp9 { fill: #bebeb9 } 
		.shp10 { opacity: 0.2;mix-blend-mode: overlay;fill: #e2e2de } 
		.shp11 { fill: #ce724e } 
		.shp12 { fill: #95543d } 
		.shp13 { fill: #e6e2dc } 
		.shp14 { fill: #c4c4c4 } 
		.shp15 { fill: #614526 } 
		.shp16 { fill: #805a30 } 
		.shp17 { fill: #e1bd50 } 
		.shp18 { fill: #e8c049 } 
		.shp19 { fill: #e1a650 } 
		.shp20 { fill: #f5d269 } 
	</style>
	<g id="MyInfo">
		<g id="profile">
			<g id="돌테두리">
				<g id="profile_avatar_1" clip-path="url(#cp1)">
					<g id="Group 113">
						<g id="Group 72">
							<path id="Shape 74" class="shp0" d="M28.63 58.79L38.84 67.3L100.12 72.4L112.03 61.34L115.43 26.45L21.82 24.75L28.63 58.79Z" />
							<path id="Shape 76" class="shp1" d="M31.18 52.83L32.88 46.02L37.99 47.72L40.54 51.98L45.65 52.83L51.61 51.13L54.16 57.09L64.37 58.79L82.24 57.94L84.8 51.98L87.35 53.68L93.31 52.83L97.56 49.43L100.12 48.57L103.52 56.23L92.46 62.19L93.31 67.3L106.07 72.4L116.29 63.04L111.18 29L23.52 26.45L19.27 62.19L40.54 65.6L42.24 57.94L31.18 52.83Z" />
							<path id="Ellipse 1 copy 2" class="shp2" d="M45.65 34.96C50.82 34.96 55.01 39.15 55.01 44.32C55.01 49.49 50.82 53.68 45.65 53.68C40.48 53.68 36.29 49.49 36.29 44.32C36.29 39.15 40.48 34.96 45.65 34.96ZM89.05 35.81C94.22 35.81 98.41 40 98.41 45.17C98.41 50.34 94.22 54.53 89.05 54.53C83.88 54.53 79.69 50.34 79.69 45.17C79.69 40 83.88 35.81 89.05 35.81Z" />
							<path id="Shape 71" class="shp3" d="M119.69 46.02L141.82 56.23L144.37 81.77L126.5 123.47L79.69 144.74L23.52 135.38L-6.27 103.04L-12.22 69L-6.27 51.98L17.56 45.17L38.84 63.04L53.31 72.4L84.8 74.11L99.26 63.89L119.69 46.02Z" />
							<path id="Shape 81" class="shp4" d="M104.37 107.3L95.01 107.3L83.95 103.04L75.44 96.23L72.88 97.08L72.03 104.74L69.48 105.59L69.48 97.08L64.37 97.08L62.67 102.19L60.12 102.19L61.82 96.23L57.56 95.38L50.75 101.34L42.24 104.74L32.88 105.59L23.52 104.74L18.41 111.55L15.86 125.17L-7.12 84.32L1.39 78.36L72.88 79.21L132.46 80.91L139.26 94.53L116.29 126.87L110.33 112.4L104.37 107.3ZM95.86 69.85L117.14 42.62L129.9 46.02L137.56 55.38L126.5 74.96L103.52 75.81L95.86 69.85ZM37.14 66.45L12.46 40.92L0.54 43.47L-9.67 57.94L-2.86 69.85L29.48 74.96L37.14 66.45Z" />
							<path id="Shape 73" class="shp5" d="M82.92 143.16L82.29 126.13L80.87 110.02L82.42 108.18L84.27 109.72L85.31 121.59L86.12 130.92L86.17 141.17L82.92 143.16ZM123.09 113.25L116.29 100.49L117.99 98.79L125.65 111.55L123.09 113.25ZM44.84 139.51L46.59 127.73L52 108.75L50.7 105.97L47.67 108.96L43.48 125.54L41.72 137.33L44.84 139.51ZM20.97 126.02L23.52 114.96L31.18 96.23L27.78 94.53L20.97 113.25L18.41 125.17L20.97 126.02ZM3.95 103.89L10.76 89.42L9.05 87.72L1.39 102.19L3.95 103.89ZM66.07 142.19L66.92 127.72L65.22 125.17L63.52 127.72L61.82 142.19L66.07 142.19ZM108.63 126.02L106.07 114.96L102.67 105.59L99.26 100.49L102.67 100.49L106.07 106.45L109.48 114.11L111.18 124.32L108.63 126.02ZM135.01 60.49L117.99 54.53L117.14 57.09L134.16 63.89L135.01 60.49ZM-4.56 61.34L4.8 55.38L12.46 53.68L14.16 56.23L5.65 57.94L-3.71 63.89L-4.56 61.34ZM7.35 70.7L18.41 62.19L20.97 63.04L15.01 67.3L11.61 71.55L7.35 70.7ZM122.24 75.81L110.33 63.89L107.77 65.6L117.14 74.96L122.24 75.81Z" />
							<path id="Shape 85" class="shp6" d="M118.84 70.7L135.86 64.74L141.82 51.98L118.84 42.62L93.31 67.3L118.84 70.7ZM32.88 65.6L10.76 67.3L-8.82 63.04L-12.22 49.43L14.16 42.62L32.88 65.6Z" />
							<path id="Shape 80" class="shp7" d="M81.39 89.42L77.14 92.83L67.78 92.83L59.27 91.98L54.16 86.02L56.71 80.06L80.54 81.77L81.39 89.42Z" />
							<path id="Shape 72" class="shp8" d="M77.99 65.6L93.31 63.89L106.92 72.4L123.09 73.25L135.01 61.34L145.22 69L141.82 86.02L114.58 102.19L93.31 101.34L72.03 90.28L69.48 84.32L63.52 91.13L49.05 98.79L20.12 99.64L-11.37 78.36L-7.12 63.04L9.05 69.85L24.37 69.85L37.14 61.34L59.27 63.89L77.99 65.6Z" />
							<path id="Shape 82" class="shp9" d="M89.05 66.45L88.2 63.89L49.05 62.19L48.2 66.45L53.31 74.11L61.82 78.36L63.52 81.77L57.56 87.72L49.05 92.83L30.33 94.53L15.01 92.83L-1.16 81.77L-7.97 91.98L13.31 103.89L49.05 111.55L92.46 108.15L119.69 107.3L141.82 93.68L134.16 86.87L113.73 97.94L94.16 95.38L78.84 89.42L72.88 82.62L75.44 77.51L82.24 74.96L89.05 66.45ZM-4.56 83.47L16.71 95.38L11.61 85.17L12.46 74.96L16.71 66.45L-1.16 60.49L-6.27 69.85L-4.56 83.47ZM114.58 70.7L132.46 59.64L139.26 69L135.01 86.87L117.14 97.08L121.39 86.87L120.54 77.51L114.58 70.7Z" />
							<path id="Shape 83" class="shp10" d="M64.37 73.25L52.46 86.87L33.73 91.13L18.41 87.72L-4.56 75.81L-5.41 73.25L19.27 86.02L36.29 88.57L49.05 85.17L56.71 78.36L61.82 71.55L64.37 73.25ZM52.46 64.74L40.54 66.45L32.03 71.55L18.41 71.55L15.01 72.4L24.37 73.25L34.59 72.4L41.39 68.15L54.16 66.45L52.46 64.74ZM57.56 69.85L46.5 77.51L32.88 80.91L14.16 78.36L-4.56 67.3L-3.71 65.6L12.46 74.96L22.67 77.51L34.59 79.21L46.5 74.96L56.71 68.15L57.56 69.85ZM83.95 66.45L91.6 68.15L98.41 72.4L108.63 74.96L117.99 73.25L120.54 73.25L108.63 76.66L97.56 74.96L89.9 69.85L81.39 69L83.95 66.45ZM78.84 70.7L86.5 74.11L94.16 79.21L106.92 80.91L118.84 80.06L128.2 74.96L135.86 69L137.56 69L129.05 76.66L117.99 81.77L105.22 82.62L89.05 79.21L77.14 71.55L78.84 70.7ZM72.88 72.4L83.95 85.17L98.41 91.13L112.03 91.13L122.24 88.57L136.71 80.06L137.56 81.77L123.09 90.28L109.48 93.68L96.71 92.83L80.54 85.17L71.18 73.25L72.88 72.4Z" />
							<path id="Shape 75" class="shp11" d="M83.95 55.38L88.2 59.64L88.2 65.6L80.54 72.4L77.14 73.25L72.03 75.81L66.07 75.81L60.12 73.25L55.01 71.55L49.05 65.6L49.05 59.64L53.31 55.38L58.41 55.38L73.73 57.09L79.69 54.53L83.95 55.38Z" />
							<path id="Shape 87" class="shp12" d="M82.24 53.68L79.69 59.64L76.29 70.7L62.67 70.7L58.41 60.49L55.01 54.53L67.78 51.13L82.24 53.68Z" />
							<path id="Ellipse 1 copy" class="shp13" d="M45.65 38.36C48.94 38.36 51.61 41.03 51.61 44.32C51.61 47.61 48.94 50.28 45.65 50.28C42.36 50.28 39.69 47.61 39.69 44.32C39.69 41.03 42.36 38.36 45.65 38.36ZM89.05 39.21C92.34 39.21 95.01 41.88 95.01 45.17C95.01 48.46 92.34 51.13 89.05 51.13C85.76 51.13 83.1 48.46 83.1 45.17C83.1 41.88 85.76 39.21 89.05 39.21Z" />
							<path id="Shape 86" class="shp14" d="M38.84 42.62L52.46 47.72L83.09 48.57L97.56 44.32L96.71 38.36L38.84 36.66L38.84 42.62Z" />
							<path id="Shape 70" class="shp15" d="M30.33 32.4L27.78 46.87L40.54 53.68L38.84 64.74L17.56 64.74L8.2 44.32L7.35 17.09L48.2 -7.59L89.05 -5.04L125.65 17.94L123.94 46.87L116.29 65.6L96.71 67.3L94.16 55.38L106.07 48.57L103.52 34.11L30.33 32.4Z" />
							<path id="Shape 79" class="shp16" d="M79.69 4.32L84.8 19.64L106.07 23.04L107.77 29L115.43 34.96L121.39 29L111.18 7.72L84.8 -0.79L79.69 4.32ZM62.67 1.77L63.52 21.34L30.33 21.34L27.78 24.75L20.97 35.81L20.12 43.47L16.71 38.36L14.16 23.89L22.67 6.02L55.01 -1.64L62.67 1.77Z" />
							<path id="Shape 84" class="shp17" d="M103.52 37.51L104.37 48.57L93.31 55.38L95.86 68.15L116.29 66.45L121.39 57.09L125.65 46.02L126.5 34.11L123.94 33.26L123.09 44.32L118.84 55.38L114.58 63.89L98.41 64.74L96.71 57.09L108.63 49.43L106.92 36.66L103.52 37.51ZM32.03 34.96L29.48 46.02L41.39 52.83L39.69 65.6L17.56 65.6L10.76 53.68L6.5 43.47L6.5 33.26L8.2 32.4L9.05 42.62L13.31 52.83L19.27 62.19L36.29 63.04L37.99 54.53L25.22 47.72L29.48 33.26L32.03 34.96ZM49.05 1.77L46.5 12.83L45.65 20.49L45.65 29L43.1 29L43.1 20.49L43.95 10.28L46.5 0.06L49.05 1.77ZM87.35 2.62L89.9 12.83L90.75 18.79L91.6 28.15L94.16 29L93.31 18.79L92.46 11.13L89.05 0.92L87.35 2.62Z" />
							<path id="Shape 69" class="shp18" d="M61.82 0.92L58.41 26.45L23.52 23.89L23.52 34.11L57.56 46.02L62.67 68.15L75.44 68.15L78.84 46.02L110.33 36.66L110.33 25.6L78.84 27.3L75.44 0.06L61.82 0.92Z" />
							<path id="Shape 78" class="shp19" d="M110.33 36.66L78.84 46.02L77.14 56.23L74.58 51.13L72.03 44.32L76.29 37.51L90.75 34.96L100.12 37.51L108.63 34.96L109.48 27.3L110.33 27.3L110.33 36.66ZM57.56 46.02L55.01 40.92L24.37 32.4L23.52 34.11L57.56 46.02Z" />
							<path id="Shape 77" class="shp20" d="M63.52 29.85L62.67 40.06L65.22 50.28L65.22 61.34L69.48 65.6L74.58 65.6L76.29 62.19L75.44 68.15L62.67 68.15L60.97 61.34L61.82 48.57L60.12 38.36L59.27 32.4L53.31 28.15L25.22 25.6L24.37 34.11L23.52 34.11L23.52 23.89L58.41 26.45L61.82 1.77L65.22 0.06L65.22 12.83L64.37 23.89L63.52 29.85ZM79.69 27.3L110.33 25.6L110.33 27.3L89.05 28.15L87.35 30.7L85.65 28.15L78.84 29L76.29 28.15L73.73 3.47L76.29 3.47L77.99 26.45L79.69 27.3Z" />
						</g>
					</g>
				</g>
			</g>
		</g>
	</g>
</svg>