<svg version="1.2" baseProfile="tiny-ps" xmlns="http://www.w3.org/2000/svg" viewBox="0 0 28 32" width="28" height="32">
	<title>MyInfo</title>
	<style>
		tspan { white-space:pre }
		.shp0 { fill: #d5b67c } 
	</style>
	<g id="MyInfo">
		<g id="stat">
			<g id="Icons">
				<path id="defense" class="shp0" d="M14 3.6L19.16 6.33L19.98 6.76L20.91 6.76L24.26 6.76L24.26 12.17C24.26 18.99 20.18 25.17 14 27.88C7.82 25.17 3.74 18.99 3.74 12.17L3.74 6.76L7.1 6.76L8.03 6.76L8.85 6.33L14 3.6M14 -0.1C13.9 -0.1 13.8 -0.08 13.71 -0.03L7.1 3.03L0.65 3.03C0.3 3.03 0.02 3.32 0.02 3.67L0.02 12.17C0.02 21.2 5.75 28.9 13.78 31.81C13.85 31.83 13.93 31.84 14 31.84C14.08 31.84 14.16 31.83 14.23 31.81C22.26 28.9 27.99 21.2 27.99 12.17L27.99 3.67C27.99 3.32 27.71 3.03 27.36 3.03L20.91 3.03L14.3 -0.03C14.21 -0.08 14.11 -0.1 14 -0.1L14 -0.1ZM0.65 3.03L7.1 3.03L13.71 -0.03C13.8 -0.08 13.9 -0.1 14 -0.1L14 31.84C13.93 31.84 13.85 31.83 13.78 31.81C5.75 28.9 0.02 21.2 0.02 12.17L0.02 3.67C0.02 3.32 0.3 3.03 0.65 3.03Z" />
			</g>
		</g>
	</g>
</svg>