<svg version="1.2" baseProfile="tiny-ps" xmlns="http://www.w3.org/2000/svg" viewBox="0 0 119 121" width="119" height="121">
	<title>[fo]Icon</title>
	<style>
		tspan { white-space:pre }
		.shp0 { opacity: 0;fill: #000000 } 
		.shp1 { fill: #cfa17b } 
		.shp2 { opacity: 0.6;fill: #ddc2a0 } 
		.shp3 { fill: #547d90 } 
		.shp4 { opacity: 0.502;mix-blend-mode: screen;fill: #547d90 } 
		.shp5 { fill: #9d4d23 } 
		.shp6 { fill: #b71e1e } 
		.shp7 { fill: #f4ebdf } 
		.shp8 { fill: #812727 } 
		.shp9 { fill: #f7b7b0 } 
	</style>
	<g id="[fo]Icon">
		<g id="common_icon_shop">
			<path id="bg" class="shp0" d="M113.92 -16.34C83.86 -31.61 63.49 -34.9 55.74 -35.86C53.92 -36.09 52.09 -36.09 50.27 -35.86C42.52 -34.9 22.14 -31.61 -7.94 -16.34C-11.62 -14.47 -14.68 -11.57 -16.76 -8.01C-22.33 1.58 -33.05 22.97 -36.82 51.25C-37.06 53.05 -37.06 54.9 -36.82 56.7C-33.05 84.98 -22.33 106.37 -16.76 115.96C-14.68 119.52 -11.62 122.42 -7.94 124.29C22.13 139.56 42.5 142.84 50.25 143.81C52.07 144.04 53.9 144.04 55.72 143.81C63.47 142.85 83.85 139.56 113.92 124.29C117.61 122.42 120.67 119.52 122.75 115.96C128.32 106.37 139.03 84.98 142.81 56.7C143.05 54.9 143.05 53.05 142.81 51.25C139.03 22.97 128.32 1.57 122.75 -8.01C120.67 -11.57 117.61 -14.47 113.92 -16.34Z" />
			<g id="icon">
				<g id="shop">
					<path id="Rounded Rectangle 9" class="shp1" d="M8.14 41.54L97.86 41.54L94.12 105.09L11.88 105.09L8.14 41.54Z" />
					<path id="Rounded Rectangle 10" class="shp2" d="M24.34 60.23L81.66 60.23L81.66 105.09L24.34 105.09L24.34 60.23Z" />
					<path id="Rounded Rectangle 10 copy" class="shp3" d="M28.08 60.23L77.92 60.23L77.92 105.09L28.08 105.09L28.08 60.23Z" />
					<path id="Rounded Rectangle 10 copy 2" class="shp4" d="M35.55 77.68L77.92 81.42L77.92 105.09L35.55 105.09L35.55 77.68Z" />
					<path id="Rounded Rectangle 11" class="shp5" d="M3.15 98.86L102.85 93.88L102.85 106.34L3.15 107.59L3.15 98.86Z" />
					<path id="Shape 7" class="shp6" d="M0.66 55.25L13.12 0.41L94.12 9.14L105.34 51.51L0.66 55.25Z" />
					<path id="Shape 8" class="shp7" d="M35.55 54L39.29 2.91L67.95 6.64L70.45 55.25L35.55 54Z" />
					<path id="Rounded Rectangle 8 copy 3" class="shp8" d="M105.26 60.23C104.46 63.72 96.99 66.46 87.89 66.46C78.79 66.46 71.33 63.72 70.53 60.23L70.45 60.23L70.45 47.77L105.34 51.51L105.34 60.23L105.26 60.23ZM35.55 58.98L35.47 58.98C34.67 62.48 27.21 65.22 18.11 65.22C9.01 65.22 1.54 62.48 0.74 58.98L0.66 58.98L0.66 54L35.55 49.02L35.55 58.98Z" />
					<path id="Rounded Rectangle 8 copy 4" class="shp9" d="M70.45 52.75L70.45 60.23L70.37 60.23C69.56 63.72 62.1 66.46 53 66.46C43.9 66.46 36.44 63.72 35.63 60.23L35.55 60.23L35.55 54L70.45 52.75Z" />
				</g>
			</g>
		</g>
	</g>
</svg>