<svg version="1.2" baseProfile="tiny-ps" xmlns="http://www.w3.org/2000/svg" viewBox="0 0 158 126" width="158" height="126">
	<title>[fo]Icon</title>
	<style>
		tspan { white-space:pre }
		.shp0 { opacity: 0;fill: #000000 } 
		.shp1 { fill: #c97240 } 
		.shp2 { fill: #f0ab60 } 
		.shp3 { fill: #ffcd76 } 
		.shp4 { fill: #431d85 } 
		.shp5 { opacity: 0.6;fill: #6e3bc6 } 
		.shp6 { fill: #9158f5 } 
		.shp7 { fill: #b368ff } 
		.shp8 { fill: #5d2fac } 
	</style>
	<g id="[fo]Icon">
		<g id="common_icon_mission">
			<path id="bg" class="shp0" d="M144.92 -14.34C114.86 -29.61 94.49 -32.9 86.74 -33.86C84.92 -34.09 83.09 -34.09 81.27 -33.86C73.52 -32.9 53.14 -29.61 23.06 -14.34C19.38 -12.47 16.32 -9.57 14.24 -6.01C8.67 3.58 -2.05 24.97 -5.82 53.25C-6.06 55.05 -6.06 56.9 -5.82 58.7C-2.05 86.98 8.67 108.37 14.24 117.96C16.32 121.52 19.38 124.42 23.06 126.29C53.13 141.56 73.5 144.84 81.25 145.81C83.07 146.04 84.9 146.04 86.72 145.81C94.47 144.85 114.85 141.56 144.92 126.29C148.61 124.42 151.67 121.52 153.75 117.96C159.32 108.37 170.03 86.98 173.81 58.7C174.05 56.9 174.05 55.05 173.81 53.25C170.03 24.97 159.32 3.57 153.75 -6.01C151.67 -9.57 148.61 -12.47 144.92 -14.34Z" />
			<g id="icon">
				<g id="mission">
					<path id="Rounded Rectangle 12" class="shp1" d="M9.52 17.02L133.16 5.46L133.16 13.9L9.52 23.29L9.52 17.02Z" />
					<path id="Ellipse 1" class="shp2" d="M8.76 12.56C13.41 12.56 17.18 16.33 17.18 20.98C17.18 25.63 13.41 29.4 8.76 29.4C4.11 29.4 0.34 25.63 0.34 20.98C0.34 16.33 4.11 12.56 8.76 12.56ZM136.33 0.53C140.98 0.53 144.75 4.3 144.75 8.95C144.75 13.6 140.98 17.37 136.33 17.37C131.68 17.37 127.91 13.6 127.91 8.95C127.91 4.3 131.68 0.53 136.33 0.53Z" />
					<path id="Ellipse 3" class="shp3" d="M5.75 12.56C8.74 12.56 11.17 14.98 11.17 17.97C11.17 20.96 8.74 23.39 5.75 23.39C2.76 23.39 0.34 20.96 0.34 17.97C0.34 14.98 2.76 12.56 5.75 12.56Z" />
					<path id="Shape 10" class="shp4" d="M118.28 51.08L118.28 104.03L106.24 111.25L97.82 101.62L97.82 47.47L118.28 51.08ZM30.42 78.76L32.83 105.23L41.25 112.45L50.88 105.23L49.68 82.37L30.42 78.76Z" />
					<path id="Shape 24" class="shp5" d="M30.61 92.1L46.1 99.77L46.56 115.04L31.16 112.07L30.61 92.1ZM97.37 101.88L111.09 90.91L111.09 111.21L111.09 114.16L103.87 114.79L97.37 101.88Z" />
					<path id="Shape 9" fill-rule="evenodd" class="shp6" d="M20.37 11.24L122.32 1.48L122.44 40.45L111.81 43.81L122.46 47.26L122.55 75.12L74.59 109.09L27.96 84.15L26.87 73.72L39.28 71.51L26.41 69.27L20.37 11.24Z" />
					<path id="Shape 11" class="shp7" d="M19.59 19.79L127.9 14.97L124.29 -3.08L14.78 5.34L19.59 19.79Z" />
					<path id="crown" fill-rule="evenodd" class="shp8" d="M55.79 70.01L48.56 43.94L62.32 49.53L70.67 31.59L80.15 49.53L94.94 40.04L88.31 68.75L55.79 70.01ZM87.91 71.5L87.03 75.71L58.29 77.68L56.47 72.77L87.91 71.5Z" />
				</g>
			</g>
		</g>
	</g>
</svg>