<svg version="1.2" baseProfile="tiny-ps" xmlns="http://www.w3.org/2000/svg" viewBox="0 0 138 138" width="138" height="138">
	<title>[fo]Icon</title>
	<style>
		tspan { white-space:pre }
		.shp0 { opacity: 0;fill: #000000 } 
		.shp1 { fill: #c4dedd } 
		.shp2 { fill: #94a7b8 } 
		.shp3 { opacity: 0.302;mix-blend-mode: multiply;fill: #778898 } 
		.shp4 { fill: #d9eae9 } 
		.shp5 { fill: #2d3a3a } 
		.shp6 { fill: #242e2f } 
		.shp7 { fill: #7b1f13 } 
		.shp8 { opacity: 0.502;mix-blend-mode: multiply;fill: #7c342b } 
		.shp9 { fill: #80282e } 
		.shp10 { opacity: 0.4;mix-blend-mode: multiply;fill: #80282e } 
		.shp11 { fill: #e2bb5d } 
		.shp12 { fill: #cd8e44 } 
		.shp13 { fill: #fceb9e } 
		.shp14 { fill: #965535 } 
	</style>
	<g id="[fo]Icon">
		<g id="common_icon_sword_B">
			<path id="bg" class="shp0" d="M125.92 -9.34C95.86 -24.61 75.49 -27.9 67.74 -28.86C65.92 -29.09 64.09 -29.09 62.27 -28.86C54.52 -27.9 34.14 -24.61 4.06 -9.34C0.38 -7.47 -2.68 -4.57 -4.76 -1.01C-10.33 8.58 -21.05 29.97 -24.82 58.25C-25.06 60.05 -25.06 61.9 -24.82 63.7C-21.05 91.98 -10.33 113.37 -4.76 122.96C-2.68 126.52 0.38 129.42 4.06 131.29C34.13 146.56 54.5 149.84 62.25 150.81C64.07 151.04 65.9 151.04 67.72 150.81C75.47 149.85 95.85 146.56 125.92 131.29C129.61 129.42 132.67 126.52 134.75 122.96C140.32 113.37 151.03 91.98 154.81 63.7C155.05 61.9 155.05 60.05 154.81 58.25C151.03 29.97 140.32 8.57 134.74 -1.01C132.67 -4.57 129.61 -7.47 125.92 -9.34Z" />
			<g id="icon">
				<g id="sword_B">
					<path id="Shape 189" class="shp1" d="M27.93 59.15L62.06 26.14L66.3 27.69L65.3 22.68L86.1 1.48L90.26 0.51L116.3 3.03L118.87 4.63L120.51 3.74L122.27 6.2L124.45 22.09L124.03 35.54L123.33 39.76L83.04 80.06L80.53 80.14L77.37 86.12L65.19 98.27L27.93 59.15Z" />
					<path id="Shape 191" fill-rule="evenodd" class="shp2" d="M127.63 -0.21L150.51 43.81L69.92 108.37L51.1 85.87L57.54 78.74L60.88 78.57L61.55 75.17L85.55 52.11L89.73 51.9L90.4 48.51L101.6 37.86L102.85 29.39L101.46 24.71L127.63 -0.21Z" />
					<path id="Shape 193" class="shp3" d="M56.37 72.07L96.63 72.57L66.95 99.27L46.67 79.28L56.37 72.07Z" />
					<path id="Shape 192 copy" class="shp4" d="M84.28 -6.65L91.23 31.66L73.71 50.19L65.81 9.4L84.28 -6.65ZM61.08 15.53L68.03 53.84L60.17 64.32L52.26 23.53L61.08 15.53Z" />
					<path id="Shape 190" class="shp5" d="M41.32 72.83L65.4 51.45L65.27 48.93L67.78 48.81L78.19 39.04L78.06 36.52L79.77 37.28L90.98 26.63L94.28 25.62L99.38 27.05L100.47 32.03L99.8 35.43L87.8 46.96L87.89 48.64L86.3 50.4L84.58 49.64L58.96 73.62L58.25 76.18L56.58 76.26L50.98 81.59L41.32 72.83Z" />
					<path id="Shape 194" class="shp6" d="M44.79 75.18L93.57 28.18L98.59 27.93L100.17 26.17L89.93 22.48L40.36 70.36L44.79 75.18Z" />
					<g id="Group 93">
						<path id="Shape 197" class="shp7" d="M28.09 82.32L8.81 103.25L21.06 116.2L42.94 97.69L28.09 82.32Z" />
						<path id="Shape 202" class="shp8" d="M15.8 110.53L36.89 92.89L44.78 101.81L21.22 120.39L15.8 110.53ZM11.96 98.08L20.82 110.33L23.97 105.16L13.56 96.34L11.96 98.08ZM24.81 84.13L34.61 98.86L39.46 94.47L27.22 81.51L24.81 84.13Z" />
						<path id="Shape 201" class="shp9" d="M20.4 89.38L36.23 104.38L27.62 112.58L13.21 97.62L20.4 89.38Z" />
						<path id="Shape 203" class="shp10" d="M18.35 111.27L38.59 93.66L45.58 100.94L23.73 120.29L18.35 111.27ZM30.53 101.54L27.92 99.13L22.3 105.23L24.04 106.84L30.53 101.54Z" />
						<path id="Shape 198" class="shp11" d="M9.01 102.91L21.9 116.11L21.27 120.25L15.3 124.94L9.38 124.88L4.59 123.58L2.02 122L-0.01 116.47L0.06 109.35L4.59 102.58L9.01 102.91Z" />
						<path id="Shape 199" class="shp12" d="M18.61 117.98L12.52 112.34L10.18 116.63L6.07 118.48L2.72 118.61L4.49 121.06L8.71 121.73L14.56 121.5L18.61 117.98Z" />
						<path id="Shape 200" class="shp13" d="M19.22 112.07L16.84 115.53L9.04 109.12L5.8 111.77L4.13 111.83L2.39 110.22L5.57 105.9L3.76 102.61L8.71 100.73L19.22 112.07Z" />
					</g>
					<path id="Shape 192" class="shp14" d="M28.42 73.76L25.27 80.57L25.86 83.56L40.55 97.72L43.14 99.28L51.83 96.65L28.42 73.76Z" />
					<path id="Shape 188" class="shp11" d="M23.67 55.23L16.52 63.15L16.65 65.66L59.01 108.08L63.23 108.71L71.3 102.42L71.13 99.06L51.6 77.35L48.26 77.52L48.09 74.17L27.9 55.85L23.67 55.23Z" />
					<path id="Shape 196" class="shp12" d="M30.11 83.48L48.3 78.36L67.7 97.56L65.44 102.71L59.76 106.36L64.9 108.62L58.46 113.99L30.11 83.48Z" />
					<path id="Shape 195" class="shp13" d="M16.69 66.5L23.09 60.3L25.6 60.17L36.13 69.73L37.14 73.04L39.6 72.07L45.71 76.81L45.92 81L49.26 80.83L65.11 96L65.24 98.52L69.54 100.82L71.97 99.02L27.43 46.63L13.22 64.16L16.69 66.5Z" />
				</g>
			</g>
		</g>
	</g>
</svg>